<?xml version="1.0" encoding="UTF-8" standalone="no"?>
<svg xmlns:xlink="http://www.w3.org/1999/xlink" height="418.0px" width="437.6px" xmlns="http://www.w3.org/2000/svg">
  <g transform="matrix(8.0, 0.0, 0.0, 8.0, 218.8, 208.8)">
    <path d="M9.45 -25.0 L9.25 -24.95 9.45 -24.9 10.45 -24.7 Q15.6 -23.65 17.15 -22.75 23.2 -19.95 23.75 -14.5 L23.8 -14.05 25.15 -14.65 25.2 -14.65 25.5 -14.75 25.6 -15.2 25.6 -15.25 Q25.6 -16.65 24.7 -18.25 23.3 -21.0 21.05 -22.5 18.9 -24.0 16.85 -24.7 L14.35 -25.4 Q12.8 -25.6 11.75 -25.4 L10.55 -25.25 9.45 -25.0 M15.9 -25.7 L17.15 -25.3 19.45 -24.3 19.45 -24.35 19.55 -24.35 19.45 -24.3 21.3 -23.25 Q23.8 -21.8 25.25 -19.2 L26.0 -17.05 26.35 -15.2 26.35 -14.9 Q26.95 -14.85 27.15 -13.95 L27.35 -12.3 27.05 -9.7 26.4 -8.9 Q26.55 -7.0 25.85 -4.5 L25.85 -4.45 25.85 -4.35 25.75 -4.15 25.65 -4.1 Q25.15 -3.65 23.9 -3.55 L23.2 -0.7 Q22.55 1.8 23.4 6.55 L23.9 6.75 Q24.45 7.05 24.5 7.75 L24.3 9.7 23.85 11.0 23.35 11.7 22.8 12.25 22.7 12.35 Q21.5 13.35 20.05 13.5 L19.7 13.1 19.35 13.3 17.85 14.15 14.15 16.35 10.1 18.7 Q7.0 20.5 4.15 22.6 L2.9 23.45 2.7 24.15 -0.6 26.15 -2.15 25.65 -3.55 24.9 -3.6 24.9 -4.65 24.1 -5.15 23.5 -5.35 22.8 -5.35 22.65 -6.7 22.0 -13.65 18.85 -18.6 16.45 -19.95 15.8 -20.85 15.4 -20.85 15.35 -20.9 15.3 Q-24.25 14.8 -24.95 14.05 L-25.65 9.35 -24.2 8.6 -24.4 7.5 -24.5 7.45 -24.55 6.9 -24.5 6.85 -24.5 6.5 -24.75 4.8 -25.0 2.1 -25.1 -1.2 -26.1 -1.55 Q-27.15 -3.85 -27.25 -7.1 L-27.3 -7.1 -27.2 -7.25 -27.25 -7.7 -27.35 -10.25 -26.85 -12.35 -26.3 -13.6 -25.55 -14.7 Q-24.7 -15.95 -23.55 -16.5 -22.0 -17.3 -20.0 -17.75 L-17.0 -18.4 6.35 -24.7 8.85 -25.4 13.3 -26.1 15.4 -25.8 15.9 -25.7 M-1.65 -12.9 L-0.8 -11.6 0.75 -9.05 0.85 -8.9 1.05 -8.45 1.15 -8.25 1.3 -7.8 1.45 -7.5 1.7 -6.8 2.7 -3.55 2.8 -3.25 3.3 -3.1 3.65 -2.6 Q4.1 -1.7 4.1 0.7 L4.1 1.05 10.35 -2.05 10.3 -4.4 10.5 -5.7 11.15 -6.45 Q12.2 -7.05 14.8 -7.85 15.6 -7.85 15.65 -6.95 L15.7 -4.8 18.75 -6.4 22.5 -8.5 Q22.35 -8.8 22.35 -9.05 L22.6 -11.55 22.6 -12.1 22.7 -12.85 23.0 -13.9 22.95 -15.25 Q22.65 -16.95 21.15 -19.05 L20.45 -19.8 20.2 -20.0 Q18.7 -21.3 15.75 -22.65 11.95 -24.4 8.6 -24.4 L8.35 -24.35 3.55 -23.25 0.1 -22.25 -1.8 -21.65 -2.85 -21.35 -6.4 -20.4 -10.6 -19.25 Q-8.25 -19.05 -6.15 -17.7 L-5.45 -17.25 -4.9 -16.75 -3.6 -15.5 -2.4 -13.95 -1.95 -13.35 -1.65 -12.9 M16.7 -21.15 L16.75 -21.1 16.65 -21.1 16.7 -21.15 M-14.15 -18.2 L-15.05 -17.95 -13.2 -17.5 -10.9 -16.8 -8.2 -15.1 -8.1 -15.05 -8.0 -15.0 -6.4 -13.4 -5.3 -12.1 -4.25 -10.65 -2.65 -8.0 -1.9 -6.45 -1.3 -5.05 -0.3 -2.15 1.45 -2.95 2.15 -3.25 1.75 -4.95 Q1.15 -7.3 -0.7 -10.25 L-1.2 -11.05 Q-3.65 -14.8 -6.4 -17.1 -7.45 -17.95 -9.25 -18.45 L-11.65 -18.85 -13.3 -18.4 -14.15 -18.2 M2.5 -1.95 L1.95 -2.05 1.05 -1.65 0.1 -1.3 0.0 -1.25 -0.15 -1.25 -0.2 -1.2 -0.25 -1.2 -0.8 -1.05 -1.75 -1.2 -3.55 -1.5 -3.6 -1.5 Q-4.3 -1.65 -4.3 -1.25 L-4.3 -1.2 -4.35 -1.1 -4.45 1.8 -4.45 2.0 -4.25 2.6 Q-4.2 2.75 -2.7 3.3 L-1.95 3.6 -1.05 3.95 -0.95 3.95 -0.85 3.95 -0.45 3.95 Q0.6 3.7 2.35 2.5 L2.65 2.3 2.7 2.2 2.75 2.15 2.75 2.1 3.0 2.0 3.05 1.8 3.05 1.5 3.0 0.2 2.95 -1.6 2.8 -1.8 2.5 -1.95 M14.7 -2.95 L14.8 -3.65 14.7 -6.3 13.35 -6.4 11.85 -5.65 11.65 -5.55 11.35 -5.1 11.4 -4.75 11.35 -2.8 Q11.35 -1.6 11.5 -1.25 L11.55 -1.15 11.6 -1.1 11.65 -1.1 Q13.95 -2.05 14.35 -2.35 L14.7 -2.95 M14.1 -0.15 L13.85 -0.25 13.85 -0.3 13.6 -0.35 13.5 -0.35 13.4 -0.4 13.35 -0.35 13.05 -0.2 13.6 0.3 13.7 0.45 13.75 0.55 13.85 0.7 13.85 0.8 13.9 0.85 13.9 0.95 13.95 1.1 14.0 2.25 13.5 3.15 13.45 3.15 13.45 3.2 13.4 3.3 Q13.65 3.6 14.1 3.55 L14.3 3.5 14.7 3.25 14.75 3.2 14.75 3.15 15.1 2.05 15.05 1.5 14.95 0.9 Q14.8 0.15 14.1 -0.15 M19.3 -5.55 L19.2 -5.45 18.25 -4.9 18.3 -4.6 18.45 -4.5 18.8 -4.45 19.2 -4.65 19.3 -4.8 19.1 -4.5 19.1 -4.4 18.95 -4.35 18.75 -4.3 18.7 -4.3 18.55 -4.3 Q18.15 -4.3 18.0 -4.55 L17.95 -4.75 15.65 -3.4 15.65 -2.95 15.6 -2.35 15.7 -2.1 16.85 -2.8 19.05 -3.8 20.95 -5.1 21.75 -5.5 21.75 -5.55 21.8 -6.65 21.75 -6.9 19.3 -5.55 M15.7 -1.0 L16.2 1.0 16.3 1.95 16.3 2.5 16.25 2.7 16.25 2.85 16.2 3.1 15.5 4.2 15.15 4.55 15.1 4.85 14.95 4.95 14.85 7.25 13.9 7.95 12.65 8.6 11.9 8.95 11.85 8.95 11.8 9.0 10.9 9.15 Q10.0 9.25 10.0 8.7 L10.0 5.9 10.0 5.85 10.05 5.55 10.05 5.3 10.05 4.65 10.1 1.75 3.4 5.4 3.4 5.55 3.4 5.65 3.25 6.25 3.25 6.3 3.15 7.25 3.05 7.65 2.1 8.35 2.0 8.4 1.9 8.45 1.9 8.5 1.9 9.05 1.9 9.7 1.9 10.1 1.75 14.35 1.75 14.55 1.7 15.1 1.7 15.8 1.65 17.0 1.7 17.75 1.6 18.0 1.6 18.35 1.6 18.4 1.65 18.4 1.95 18.85 1.95 18.9 2.05 19.0 2.05 19.05 2.1 19.1 2.25 19.3 2.55 19.9 2.6 20.05 2.65 20.35 2.85 21.05 3.0 21.6 3.0 21.8 5.4 20.25 Q9.3 17.7 13.35 15.45 L14.9 14.55 19.75 11.65 20.3 10.25 20.45 9.1 20.45 8.85 20.45 8.75 20.5 8.8 20.5 8.85 20.5 9.0 20.5 9.05 20.5 9.15 20.5 9.5 20.7 11.95 21.05 11.95 21.2 11.9 21.8 11.55 22.15 11.25 22.65 10.65 23.15 9.35 23.2 9.2 23.2 9.05 23.2 8.75 23.25 7.75 22.95 7.7 22.2 7.6 22.2 7.35 22.2 7.25 22.2 6.8 22.15 6.45 22.15 6.15 22.15 5.9 22.15 5.75 22.1 5.1 22.1 4.9 22.05 4.95 21.65 5.1 21.6 5.1 21.1 4.95 21.0 4.8 20.95 4.35 20.95 4.15 20.95 4.05 Q21.05 3.4 21.5 3.2 L21.3 3.6 21.3 3.65 21.45 3.95 21.9 4.2 22.15 4.2 22.65 3.6 Q22.65 3.05 22.1 3.0 L22.1 2.9 22.1 1.95 22.15 0.8 22.2 0.4 22.25 -0.45 22.2 -0.45 22.15 -0.45 Q21.9 -0.5 21.7 -0.65 L21.65 -0.65 21.45 -0.9 21.35 -1.25 21.15 -0.15 21.15 -0.05 21.05 0.3 20.75 1.5 20.7 1.65 20.7 2.45 20.65 3.15 20.65 3.25 20.65 3.35 20.65 3.4 20.65 3.5 20.65 3.6 20.65 3.65 20.65 3.75 20.65 3.85 20.8 5.75 Q20.95 7.0 21.25 7.5 L21.25 7.55 20.7 7.65 20.6 7.7 20.55 7.7 20.45 7.75 20.35 7.35 20.4 6.45 20.3 4.65 20.4 3.15 20.65 1.65 20.7 1.55 20.55 1.2 20.55 1.15 20.7 -0.05 20.85 -1.65 20.8 -3.45 20.8 -3.55 20.8 -3.7 20.8 -3.75 20.8 -3.8 20.75 -3.8 20.7 -3.75 20.7 -3.7 20.55 -3.6 19.85 -3.15 17.75 -2.15 15.65 -1.15 15.7 -1.0 M25.7 -9.85 L26.05 -10.1 26.35 -12.05 26.25 -13.25 26.3 -13.5 Q26.3 -13.8 25.9 -13.8 25.55 -13.8 25.55 -13.5 L25.55 -13.45 24.5 -12.95 23.75 -12.5 23.65 -11.75 23.55 -10.05 Q23.55 -9.7 23.7 -9.3 L23.85 -8.9 25.3 -9.6 25.35 -9.65 25.7 -9.85 M25.25 -5.2 L25.4 -5.95 25.5 -7.95 25.5 -8.35 25.05 -8.1 24.65 -7.85 Q24.1 -7.5 23.65 -7.45 L23.55 -7.25 23.3 -7.2 23.15 -7.2 22.95 -7.4 22.95 -7.5 22.8 -7.5 22.75 -7.5 22.75 -7.35 22.75 -6.75 Q22.95 -5.95 22.75 -4.65 22.95 -4.35 23.9 -4.35 L25.15 -4.5 25.15 -4.55 25.25 -5.15 25.25 -5.2 M22.5 -2.5 L22.6 -3.4 22.7 -3.65 22.55 -3.75 22.4 -3.8 22.3 -3.85 22.05 -4.1 22.0 -4.15 22.0 -4.05 21.8 -2.95 21.7 -2.7 21.55 -2.05 21.5 -1.95 21.45 -1.8 21.45 -1.7 21.45 -1.65 21.5 -1.25 Q21.65 -0.9 22.15 -0.9 L22.45 -0.95 22.7 -1.15 22.85 -1.65 22.8 -2.05 22.45 -2.4 22.5 -2.5 M13.5 4.75 Q13.0 4.6 12.65 4.15 12.25 3.7 12.25 3.25 12.2 3.1 12.3 2.9 L12.75 1.7 12.75 1.5 12.8 1.3 11.7 0.95 11.65 0.8 11.55 0.55 11.6 0.05 11.45 0.1 11.35 7.35 11.35 7.8 11.5 7.8 Q12.75 7.85 13.8 6.6 L14.0 6.35 14.0 5.2 14.0 4.8 13.9 4.8 13.5 4.75 M10.05 0.9 L10.15 0.8 10.15 0.5 10.2 -0.7 8.05 0.35 8.1 0.65 8.1 0.8 8.05 1.05 8.05 0.85 8.0 0.55 7.9 0.4 6.95 0.85 6.95 0.9 6.95 1.15 7.0 1.2 7.2 1.35 7.5 1.4 7.7 1.35 7.35 1.5 7.0 1.45 6.9 1.4 6.75 1.2 6.7 1.0 6.65 1.0 4.55 2.1 4.5 2.1 4.45 2.1 4.35 2.15 3.9 3.05 4.25 3.15 4.35 3.15 4.65 3.0 4.8 2.85 4.75 3.2 4.7 3.25 4.95 3.1 5.5 2.85 Q6.5 2.35 7.65 1.95 L7.85 1.85 8.05 1.8 8.65 1.5 10.05 0.9 M3.7 1.25 L3.65 0.9 3.65 1.25 3.7 1.25 M1.05 7.65 L1.9 6.8 2.25 4.7 2.2 4.0 2.15 4.0 1.8 4.2 Q0.45 5.0 -0.1 5.0 L-0.4 5.1 -1.0 5.2 -1.1 5.2 -1.65 5.15 -3.1 4.65 -3.9 4.3 -4.4 4.05 -4.45 4.1 -4.45 4.2 -4.4 4.35 Q-4.5 5.5 -4.2 6.95 L-2.8 7.65 -2.65 7.7 Q-2.05 7.95 -1.7 8.15 L-1.1 8.45 -0.25 8.3 0.75 7.85 0.8 7.8 0.95 7.7 1.05 7.65 M3.4 3.3 L3.35 3.35 3.4 3.95 4.1 3.55 3.45 3.3 3.4 3.3 M0.45 9.25 L0.4 9.25 0.15 9.35 -0.1 9.45 -0.4 9.5 -0.45 9.5 -0.6 9.5 -1.4 9.5 -1.7 9.45 -2.1 9.35 -2.15 9.35 -2.8 9.05 -2.8 9.1 -2.8 9.85 -2.8 9.9 -2.7 9.9 -2.6 9.85 -2.35 9.8 Q-1.45 9.8 -1.45 10.7 L-1.6 11.25 -2.35 11.75 -2.4 11.75 -2.8 11.6 -2.85 11.6 -2.9 16.75 -2.6 16.7 -2.55 16.7 Q-1.65 16.6 -1.6 17.6 L-1.6 17.75 -1.6 17.85 Q-1.6 18.1 -1.75 18.35 -1.95 18.6 -2.35 18.65 L-2.45 18.65 -2.55 18.65 -2.85 18.65 -2.95 18.6 -2.95 18.8 -2.95 19.25 -2.15 19.6 -1.35 20.2 -1.1 20.5 -1.45 20.5 -1.55 20.5 -2.35 20.5 -2.55 20.5 -3.25 20.5 -3.45 20.6 -3.65 20.65 -3.8 21.0 -4.0 21.7 Q-4.25 22.6 -3.8 23.4 L-3.05 23.8 -1.2 24.65 -0.85 24.85 -0.5 24.7 -0.25 24.6 0.15 24.45 Q0.45 24.25 1.1 23.95 L1.35 23.8 1.95 23.05 1.95 23.0 1.9 22.7 1.95 22.3 1.75 21.6 1.65 21.2 1.35 20.3 1.2 19.9 1.1 19.8 1.05 19.8 0.9 19.75 0.7 19.65 0.65 19.65 0.55 19.75 -0.05 20.0 -0.1 20.0 -0.3 19.75 0.1 19.2 0.4 19.0 0.45 18.95 0.45 18.6 0.4 18.6 0.0 18.6 -0.5 18.25 -0.6 18.1 -0.6 18.0 -0.8 17.6 -0.8 17.55 -0.75 17.35 Q-0.7 16.85 -0.35 16.65 L-0.25 16.6 0.15 16.5 0.4 16.55 0.45 16.55 0.5 15.6 0.55 12.3 0.55 11.95 0.55 11.85 0.45 11.9 0.4 11.9 0.2 11.9 0.1 11.9 -0.1 11.85 -0.2 11.85 -0.45 11.55 -0.6 11.25 -0.7 10.65 -0.7 10.55 -0.65 10.3 -0.35 9.95 -0.3 9.9 0.2 9.75 0.3 9.75 0.45 9.75 0.6 9.75 0.6 9.6 0.6 9.2 0.6 9.15 0.45 9.25 M0.55 10.0 L0.5 10.0 0.3 10.05 Q-0.05 10.15 -0.15 10.5 L-0.2 10.7 -0.15 11.05 Q0.0 11.35 0.55 11.35 L0.8 11.35 1.1 11.2 1.1 11.15 1.1 10.7 1.15 10.35 1.15 10.25 Q0.95 9.95 0.55 10.0 M0.4 16.75 L0.15 16.85 -0.1 17.1 -0.15 17.15 -0.2 17.5 -0.1 17.8 0.25 18.2 0.35 18.2 0.55 18.2 1.0 17.75 1.0 17.65 1.0 17.5 Q1.0 16.75 0.4 16.75 M-16.35 -17.3 L-18.05 -17.2 -20.1 -16.85 -22.75 -15.95 -24.85 -14.0 Q-25.6 -13.25 -25.95 -12.05 L-26.1 -11.65 -26.0 -11.7 -24.55 -11.85 -23.55 -11.4 -23.3 -11.15 Q-23.0 -12.85 -21.9 -13.45 -20.85 -14.0 -18.75 -14.0 L-17.8 -14.0 -17.15 -13.95 Q-11.7 -13.5 -7.5 -9.45 -5.95 -7.45 -5.2 -5.4 -4.9 -4.65 -4.85 -3.65 L-4.8 -3.65 -4.7 -3.0 -4.7 -2.6 -4.7 -2.15 -3.6 -2.45 -3.25 -2.4 -2.05 -2.15 -1.35 -1.9 -1.25 -1.8 -1.3 -1.9 -1.9 -3.6 Q-2.15 -4.8 -3.05 -6.65 L-4.9 -10.05 Q-6.8 -12.85 -8.2 -14.1 -8.8 -14.65 -10.15 -15.4 L-10.55 -15.6 -11.3 -15.95 -12.05 -16.35 -14.15 -16.95 -16.0 -17.35 -16.35 -17.3 M-23.5 -9.5 Q-23.5 -10.25 -23.75 -10.5 -23.95 -10.8 -24.55 -10.95 L-25.3 -11.1 Q-25.95 -11.1 -26.2 -10.7 L-26.3 -10.35 -26.55 -9.7 -26.6 -9.05 -26.5 -7.95 -26.05 -7.3 -25.1 -7.0 -23.8 -6.7 Q-23.5 -6.65 -23.5 -7.5 L-23.5 -7.65 -23.55 -9.3 -23.5 -9.5 M-7.25 -7.8 Q-8.2 -9.2 -9.9 -10.25 L-12.7 -11.75 Q-15.9 -13.2 -18.0 -13.2 L-21.2 -12.7 Q-21.7 -12.65 -22.1 -11.85 -22.65 -10.8 -22.65 -8.8 L-22.7 -6.3 -19.1 -4.35 -17.0 -3.35 -13.9 -1.75 -8.7 0.7 -6.35 1.9 -5.55 2.3 -5.7 1.45 -5.75 1.1 -5.75 0.45 -5.7 -0.3 -5.65 -1.05 -5.55 -1.55 -5.6 -2.0 -5.65 -2.45 Q-5.95 -4.55 -6.4 -6.05 L-6.3 -6.05 -7.0 -7.5 -7.05 -7.55 -7.15 -7.8 -7.25 -7.8 M-17.8 -2.45 L-19.2 -3.1 -19.1 -2.25 Q-19.1 -1.55 -20.0 -1.55 -20.7 -1.55 -21.0 -2.15 L-21.25 -2.8 -21.2 -3.1 -21.15 -3.15 -20.9 -3.5 -20.9 -3.55 -20.55 -3.75 -21.65 -4.3 -21.65 -3.9 -21.65 -3.5 -21.65 -3.25 -21.65 -3.2 -21.65 -3.0 -21.7 -2.35 -21.7 -2.2 -21.3 -1.9 -18.95 -0.35 -16.05 1.3 -15.75 1.1 -15.4 0.95 -15.25 0.85 -14.7 0.65 -13.05 0.6 -12.8 0.7 Q-11.9 1.0 -11.25 2.1 L-11.35 2.35 -11.4 2.4 -11.55 2.55 -11.65 2.65 -12.35 2.5 -12.45 2.65 -12.05 2.8 -11.8 2.9 -11.5 3.05 -10.95 3.35 -10.8 3.4 -10.8 3.35 -10.9 2.8 -10.85 2.65 Q-10.85 1.9 -10.15 1.7 L-14.25 -0.5 -15.2 -1.05 -15.2 -1.0 -15.2 -0.65 -15.4 0.0 -15.9 0.45 -16.4 0.5 Q-17.0 0.5 -17.15 0.05 L-17.15 -0.4 -17.15 -0.5 Q-17.1 -1.5 -16.45 -1.7 L-17.8 -2.45 M-20.5 -3.3 L-20.55 -3.3 Q-21.1 -3.25 -21.1 -2.8 L-21.05 -2.55 -21.0 -2.35 -20.9 -2.3 -20.85 -2.25 -20.55 -2.2 -20.45 -2.2 -20.1 -2.4 -19.95 -2.8 Q-19.95 -3.35 -20.5 -3.3 M-23.15 -5.0 L-23.25 -5.05 Q-23.9 -5.15 -24.5 -5.65 L-25.2 -6.0 -25.9 -6.2 Q-26.05 -4.5 -25.35 -2.65 L-24.75 -2.4 -23.0 -1.65 -22.7 -1.5 -22.55 -1.45 -22.6 -1.55 -22.65 -1.6 -22.6 -1.65 -22.95 -4.9 -23.15 -5.0 M-23.0 -0.3 L-23.05 -0.3 -23.45 -0.7 -23.95 -0.65 -24.0 -0.65 -24.0 -0.55 -24.0 -0.45 -23.85 0.55 -23.85 0.8 -23.75 0.8 -23.65 0.85 Q-23.4 0.9 -23.2 1.3 L-23.05 2.0 -23.05 2.25 -23.2 2.45 -23.35 2.6 -23.6 2.5 -23.65 2.5 -23.7 2.55 -23.75 2.65 -23.75 2.7 -23.75 2.8 -23.75 2.9 -23.7 3.1 -23.55 4.0 -23.55 4.05 -23.5 4.3 -23.5 4.5 -23.35 5.55 -23.3 5.55 Q-22.85 5.55 -22.55 5.85 L-22.5 5.9 -22.5 5.65 -22.55 5.25 -22.6 4.75 -22.7 3.3 -22.8 2.55 -22.7 2.4 -22.75 2.15 -22.85 0.95 -22.85 0.9 -22.9 0.55 -22.95 0.25 -22.95 0.05 -22.95 -0.05 -22.95 -0.15 -22.9 -0.3 -22.95 -0.3 -23.0 -0.3 M-18.25 1.1 L-20.55 -0.2 -21.15 -0.55 -21.15 -0.5 -21.6 0.1 -21.6 0.15 -21.65 0.45 -21.65 0.5 -21.7 0.6 -21.75 0.65 -21.95 0.9 -21.95 1.05 -21.95 2.1 -21.95 2.85 -21.95 3.05 -21.9 3.35 -21.4 6.85 -21.35 7.15 -21.35 7.35 -21.0 9.7 -20.55 10.0 -20.2 10.5 -20.1 10.95 -19.95 11.65 -19.85 12.25 -19.85 14.45 -18.3 15.2 -18.25 15.25 Q-19.2 13.95 -19.6 12.4 L-19.75 11.7 -19.8 11.5 -19.85 11.1 Q-20.1 9.55 -19.75 8.05 L-19.75 7.95 -19.6 7.5 -19.5 7.15 -19.45 7.1 -19.35 6.65 -19.3 6.5 -19.0 5.9 -18.85 5.6 -18.5 5.05 -18.2 4.65 -17.9 4.25 -17.35 3.65 -16.9 3.25 -16.85 3.25 -16.7 3.1 -16.3 1.75 -16.35 1.75 -16.4 1.8 -16.45 1.8 -16.65 1.85 -17.3 1.55 -17.5 1.45 -18.25 1.1 M-15.9 -0.65 L-15.9 -0.75 Q-15.9 -1.35 -16.45 -1.4 L-16.5 -1.4 Q-17.05 -1.35 -17.05 -0.8 L-16.95 -0.35 -16.85 -0.25 -16.75 -0.2 -16.45 -0.2 -16.15 -0.25 -16.05 -0.3 -15.9 -0.65 M-9.45 2.9 L-9.3 2.6 Q-9.3 1.95 -9.9 1.95 L-10.35 2.1 -10.55 2.6 -10.45 2.9 Q-10.3 3.2 -9.95 3.2 L-9.9 3.2 -9.45 2.9 M-8.85 2.45 L-8.8 2.7 Q-8.8 3.15 -9.15 3.45 L-9.3 3.6 -9.4 3.7 -9.5 3.75 -9.8 3.85 -9.9 3.85 -10.2 3.85 Q-9.15 4.6 -8.45 5.75 L-5.7 7.0 -5.6 7.05 -5.4 6.85 -5.35 4.25 -5.5 4.2 -5.5 4.25 -5.5 4.4 -5.6 4.95 -6.1 5.35 -6.4 5.35 -6.45 5.35 -6.8 5.3 -7.25 5.0 -7.25 4.9 -7.25 4.65 -7.25 4.45 -7.25 4.2 -7.2 4.45 -6.6 4.85 -6.35 4.8 -6.2 4.7 -5.9 4.2 Q-5.9 3.65 -6.45 3.55 L-6.7 3.55 -7.1 3.7 -7.05 3.65 -6.95 3.5 -6.9 3.45 -8.85 2.4 -8.85 2.45 M-7.65 7.5 L-7.4 8.15 -7.1 9.25 -7.0 9.95 Q-6.9 11.05 -7.1 12.25 L-7.2 12.8 -7.3 13.15 -7.35 13.35 -7.4 13.5 Q-7.9 15.15 -8.9 16.4 L-9.55 17.05 -10.4 17.75 -10.45 17.75 -10.75 17.95 -11.05 18.1 -11.45 18.25 -11.6 18.3 -11.7 18.3 -11.8 18.35 -11.6 18.45 -5.2 21.35 -4.7 20.0 -4.7 19.8 -4.65 19.55 -4.65 19.5 -4.65 19.4 -4.4 19.3 -4.25 19.2 -4.1 13.55 Q-4.25 11.45 -4.05 10.3 L-4.0 9.65 -4.0 8.45 -4.0 8.4 -4.1 8.55 -4.15 8.55 -4.5 8.9 -4.6 8.9 -4.7 8.9 -5.0 8.75 -7.35 7.6 -7.65 7.45 -7.65 7.5 M-8.85 10.75 L-8.85 10.8 -9.05 12.4 -9.05 12.55 -9.35 13.35 -9.4 13.45 -9.45 13.6 -9.7 14.1 Q-10.4 15.15 -11.5 15.7 L-12.1 16.0 -12.35 16.1 -12.75 16.2 -12.8 16.2 -13.1 16.25 -14.4 16.0 -14.45 16.0 -14.5 15.95 -14.7 15.8 -15.3 15.45 Q-16.3 14.65 -16.85 13.45 L-17.6 11.5 -17.8 9.8 -17.65 8.8 -17.5 8.35 -17.3 7.8 -16.95 7.25 -16.5 6.55 -16.35 6.35 -16.35 6.3 -16.1 5.9 -16.4 5.25 -16.7 4.75 -16.9 4.95 -16.95 5.0 -17.05 5.25 -17.15 5.4 -17.2 5.45 -18.15 6.9 -18.5 8.15 -18.55 8.35 -18.55 8.4 -18.55 8.55 -18.7 9.4 -18.7 9.45 -18.7 9.5 -18.75 10.05 -18.75 10.35 -18.6 11.25 -18.3 12.4 -18.25 12.45 -17.7 13.7 Q-17.1 14.8 -16.2 15.6 L-16.1 15.65 Q-15.05 16.6 -13.5 16.95 L-12.2 17.05 -11.85 17.0 -11.8 17.0 -11.8 16.95 -11.75 16.95 -11.6 16.95 -10.75 16.4 -10.5 16.25 -9.75 15.4 -9.6 15.2 -8.9 13.9 -8.8 13.65 -8.4 12.35 Q-8.1 10.8 -8.4 9.25 L-8.45 8.95 -8.6 8.4 Q-9.4 5.75 -11.7 4.3 L-12.7 3.9 -13.0 3.75 -13.05 4.75 Q-10.95 5.6 -9.85 7.6 -8.9 9.1 -8.85 10.75 M-2.25 10.2 L-2.5 10.1 -2.55 10.1 Q-3.05 10.1 -3.05 10.5 L-3.05 10.7 -3.0 10.9 -2.85 11.2 -2.6 11.25 -2.25 11.2 -2.15 11.1 -2.0 10.65 Q-2.0 10.3 -2.25 10.2 M-14.75 5.15 L-14.15 5.5 -14.25 4.0 -14.15 3.35 -14.05 3.15 -13.9 2.7 -13.75 2.4 -13.7 2.1 -13.5 1.75 -13.75 1.7 -14.05 1.7 -14.1 1.7 -14.55 1.85 -14.6 1.9 -14.7 1.95 -14.9 2.1 -14.95 2.2 -15.1 2.35 -15.4 3.05 -15.4 3.1 -15.45 3.15 -15.5 3.5 -15.5 3.55 -15.4 4.8 -15.25 4.8 -15.1 4.9 -14.75 5.15 M-17.5 1.7 L-17.5 1.65 -17.2 1.85 -17.5 1.7 M-14.65 6.65 L-15.6 7.65 Q-16.2 8.35 -16.4 9.2 L-16.4 9.25 -16.45 9.45 -16.45 9.5 -16.45 10.7 Q-16.2 12.55 -15.05 14.0 L-14.95 14.15 -14.85 14.25 -14.4 14.65 -14.0 14.8 -12.95 14.9 -11.9 14.55 -11.6 14.3 Q-10.65 13.5 -10.25 12.45 L-10.2 12.1 -10.2 12.05 -10.15 12.0 -10.15 10.65 Q-10.4 8.0 -12.5 6.45 L-12.6 6.4 -12.7 6.45 -13.5 7.3 -13.75 7.3 -14.65 6.6 -14.65 6.65 M-3.2 17.2 L-3.45 17.7 -3.45 17.9 -3.45 18.15 -3.0 18.4 -2.95 18.4 Q-2.45 18.4 -2.25 18.05 L-2.1 17.85 -2.1 17.65 -2.3 17.05 -2.75 16.95 Q-3.05 17.0 -3.2 17.2 M-22.4 9.75 L-22.45 8.35 -22.45 7.75 -22.5 7.35 -22.5 7.25 -22.6 7.3 Q-22.8 7.55 -23.05 7.65 L-23.0 8.1 -22.75 9.55 -22.75 9.6 -22.95 9.75 -23.05 9.8 -23.95 9.8 -24.35 9.8 -24.0 12.95 -24.0 13.0 -24.0 13.1 -24.05 13.3 -23.95 13.6 -23.95 13.65 -23.9 13.7 -23.35 13.85 -23.1 13.85 -21.8 14.05 -21.75 14.05 -21.4 14.0 -21.2 14.0 -21.2 11.8 -21.2 11.05 -21.35 11.0 -21.6 10.85 -21.8 10.7 -22.35 10.0 -22.4 9.75" fill="#6c4900" fill-rule="evenodd" stroke="none"/>
    <path d="M9.45 -24.9 L9.25 -24.95 9.45 -25.0 9.45 -24.9 M15.4 -25.8 L15.7 -25.8 15.8 -25.75 15.9 -25.7 15.4 -25.8 M19.3 -22.75 L19.6 -22.5 19.95 -22.2 19.85 -22.25 19.3 -22.75 M16.15 -20.0 L16.85 -20.4 14.2 -19.75 12.2 -19.05 7.2 -17.1 1.7 -15.2 -0.75 -14.55 -2.4 -13.95 -3.6 -15.5 -4.9 -16.75 -1.3 -18.3 3.0 -19.75 6.95 -21.2 9.65 -22.4 Q10.8 -23.1 10.45 -23.15 L10.75 -23.3 Q7.95 -22.95 6.55 -22.25 3.65 -21.0 1.85 -20.55 L-2.45 -19.25 Q-5.55 -18.25 -6.15 -17.7 -8.25 -19.05 -10.6 -19.25 L-6.4 -20.4 -2.85 -21.35 -1.8 -21.65 0.1 -22.25 3.55 -23.25 8.35 -24.35 8.6 -24.4 Q11.95 -24.4 15.75 -22.65 18.7 -21.3 20.2 -20.0 L20.25 -19.9 20.3 -19.9 20.45 -19.8 21.15 -19.05 Q22.65 -16.95 22.95 -15.25 L23.0 -13.9 22.7 -12.85 21.8 -12.45 22.45 -12.95 Q15.6 -10.25 12.8 -8.85 L6.2 -5.9 Q2.9 -4.4 2.9 -3.85 L2.9 -3.7 2.7 -3.55 1.7 -6.8 1.5 -7.4 1.45 -7.5 1.3 -7.8 1.5 -7.8 2.25 -8.3 3.35 -8.95 5.6 -10.05 Q7.05 -10.85 10.25 -12.25 L15.1 -14.4 Q17.35 -15.3 18.55 -16.3 L19.25 -17.05 19.6 -17.35 15.1 -15.55 10.55 -13.45 5.4 -11.15 2.6 -10.1 Q1.0 -9.4 0.85 -8.9 L0.75 -9.05 -0.8 -11.6 -1.65 -12.9 0.3 -13.7 1.55 -14.2 2.8 -14.5 5.4 -15.3 7.8 -16.15 14.9 -19.0 16.15 -19.55 Q17.0 -20.0 16.5 -20.05 L16.15 -20.0 M16.7 -21.15 L16.65 -21.1 16.75 -21.1 16.7 -21.15 M7.8 -23.65 L7.85 -23.65 7.8 -23.7 7.8 -23.65 M1.05 -8.45 L1.15 -8.45 1.35 -8.5 1.15 -8.25 1.05 -8.45 M3.3 -3.1 L5.05 -4.15 7.35 -5.5 Q8.35 -6.1 9.9 -6.75 L12.35 -7.8 19.1 -10.55 22.6 -12.1 22.6 -11.55 22.35 -9.05 Q22.35 -8.8 22.5 -8.5 L18.75 -6.4 15.7 -4.8 15.65 -6.95 Q15.6 -7.85 14.8 -7.85 12.2 -7.05 11.15 -6.45 L10.5 -5.7 10.3 -4.4 10.35 -2.05 4.1 1.05 4.1 0.7 Q4.1 -1.7 3.65 -2.6 L3.3 -3.1 M3.05 1.5 L3.05 1.8 3.0 2.0 2.75 2.1 2.75 2.15 2.9 1.75 3.05 1.5 M15.7 -1.0 L16.3 -1.35 19.85 -3.15 20.55 -3.6 20.7 -3.7 20.7 -3.75 20.75 -3.8 20.8 -3.8 20.8 -3.75 20.75 -3.75 20.75 -3.65 20.75 -3.55 20.65 -3.55 20.75 -3.45 20.8 -1.65 20.65 -0.05 20.5 1.15 20.5 1.25 Q20.5 1.5 20.65 1.55 20.45 1.95 20.35 3.15 L20.25 4.65 20.35 6.45 20.3 7.35 20.4 7.8 19.65 8.35 19.65 8.5 18.1 9.55 Q16.35 10.7 16.35 10.9 L16.4 11.1 14.2 12.2 14.15 12.2 Q12.6 12.7 6.75 15.65 L1.6 18.35 1.6 18.0 1.7 17.75 1.65 17.0 1.7 15.8 3.15 14.95 Q5.25 13.75 6.15 13.3 L8.7 11.9 9.5 11.35 Q13.05 9.75 16.35 7.8 L16.6 7.8 19.75 5.9 19.85 5.75 19.85 5.65 20.25 5.45 Q20.25 4.75 16.55 6.65 L16.25 6.85 14.9 7.45 14.7 7.6 13.9 7.95 14.85 7.25 14.95 4.95 15.1 4.85 15.15 4.55 15.5 4.2 16.2 3.1 17.9 2.1 18.0 2.05 Q19.05 1.65 19.95 0.8 L20.3 0.5 20.3 0.35 20.25 0.3 20.2 0.35 20.2 0.25 20.15 0.25 Q19.65 0.2 18.85 0.65 L17.4 1.35 16.65 1.7 16.4 1.85 16.35 1.9 16.3 1.95 16.2 1.0 15.7 -1.0 M22.2 -15.95 L22.15 -16.0 22.15 -15.95 22.2 -15.95 M10.15 0.5 L10.15 0.8 10.05 0.9 10.15 0.5 M10.0 5.9 L10.0 8.7 Q10.0 9.25 10.9 9.15 L11.8 9.0 Q11.1 9.25 10.65 9.6 L7.55 11.35 6.5 11.85 5.55 12.35 5.45 12.4 5.0 12.65 3.25 13.55 2.4 14.0 1.75 14.35 1.9 10.1 7.9 7.05 10.0 5.9 M17.25 10.65 L16.4 11.05 17.25 10.55 17.25 10.65 M10.0 2.45 L9.95 2.55 10.0 2.65 10.0 2.45 M10.05 4.65 Q9.85 4.7 9.6 4.9 L9.05 5.25 8.3 5.7 7.95 5.85 7.7 5.95 Q6.55 6.35 5.85 6.85 L1.9 9.05 1.9 8.5 2.0 8.4 2.1 8.35 3.05 7.65 3.15 7.25 3.25 6.3 3.25 6.25 3.4 5.65 3.45 5.6 3.4 5.55 3.4 5.4 10.1 1.75 10.05 4.65 M3.7 1.25 L3.65 1.25 3.65 0.9 3.7 1.25 M0.4 12.1 L0.4 11.95 0.4 11.9 0.45 11.9 0.55 11.85 0.55 11.95 0.5 12.3 0.4 12.1 M-26.0 -11.7 L-26.1 -11.65 -25.95 -12.05 -26.0 -11.7 M-23.9 -14.55 L-23.85 -14.5 -23.95 -14.5 -23.9 -14.55" fill="#b7742e" fill-rule="evenodd" stroke="none"/>
    <path d="M25.6 -15.25 L25.6 -15.2 25.5 -14.75 25.2 -14.65 25.6 -15.25 M23.75 -14.5 Q23.2 -19.95 17.15 -22.75 15.6 -23.65 10.45 -24.7 L10.95 -24.85 13.95 -25.1 16.45 -24.45 18.65 -23.5 Q19.7 -23.0 21.9 -20.9 L22.8 -19.65 23.85 -18.2 24.35 -16.9 24.6 -15.5 24.0 -14.8 23.75 -14.5 M19.3 -22.75 L19.85 -22.25 19.95 -22.2 19.6 -22.5 19.3 -22.75 M1.45 -7.5 L1.5 -7.4 1.7 -6.8 1.45 -7.5 M20.45 -19.8 L20.3 -19.9 20.25 -19.9 20.2 -20.0 20.45 -19.8 M-0.7 -10.25 L-0.7 -10.15 -0.1 -8.8 0.6 -7.0 1.0 -5.4 1.45 -3.8 0.7 -3.75 0.5 -3.65 Q0.35 -3.65 -0.65 -5.95 -1.95 -9.0 -3.8 -11.3 L-5.2 -13.25 Q-6.05 -14.4 -7.1 -15.15 -8.2 -15.95 -10.05 -16.85 -12.7 -18.15 -14.15 -18.2 L-13.3 -18.4 -11.65 -18.85 -9.25 -18.45 Q-7.45 -17.95 -6.4 -17.1 -3.65 -14.8 -1.2 -11.05 L-0.7 -10.25 M2.8 -1.8 L2.95 -1.6 3.0 0.2 3.05 1.5 2.9 1.75 2.75 2.15 2.7 2.2 2.65 2.3 2.35 2.5 Q0.6 3.7 -0.45 3.95 L-0.35 3.15 -0.1 3.35 0.25 2.9 0.4 2.5 0.5 0.35 Q0.5 -0.1 1.05 -0.75 L1.45 -1.25 1.8 -1.5 2.8 -1.8 M-0.95 3.95 L-1.05 3.95 -1.2 0.95 -1.15 0.7 -1.1 1.45 -1.1 3.05 -0.95 3.95 M-1.95 3.6 L-2.7 3.3 -2.8 3.25 -3.75 2.7 -4.1 2.05 Q-4.25 1.6 -4.45 1.8 L-4.35 -1.1 -4.3 -1.2 Q-4.2 -1.05 -3.5 -0.85 L-2.35 -0.3 -2.1 1.05 -2.0 2.5 -2.0 3.25 -1.95 3.6 M11.85 -5.65 L13.35 -6.4 14.7 -6.3 14.8 -3.65 14.7 -2.95 11.85 -1.7 11.8 -2.8 11.8 -4.6 11.85 -5.65 M14.3 3.5 L14.1 3.55 Q13.65 3.6 13.4 3.3 L13.45 3.2 13.45 3.15 13.5 3.15 14.0 2.25 13.95 1.1 13.9 0.95 13.9 0.85 13.85 0.8 13.85 0.7 13.75 0.55 13.7 0.45 13.6 0.3 13.05 -0.2 13.35 -0.35 13.4 -0.4 13.5 -0.35 13.6 -0.35 13.85 -0.3 13.85 -0.25 14.1 -0.15 14.1 -0.1 14.4 0.45 14.7 1.35 14.15 3.2 14.2 3.35 14.3 3.5 M15.1 2.05 L14.75 3.15 14.95 2.5 15.1 2.05 M18.75 -4.3 L18.8 -4.3 Q19.1 -4.3 19.3 -4.55 L19.45 -4.95 19.3 -5.55 21.75 -6.9 21.8 -6.65 21.75 -5.55 21.75 -5.5 20.95 -5.1 19.05 -3.8 16.85 -2.8 15.7 -2.1 15.6 -2.35 15.65 -2.95 15.65 -3.4 17.95 -4.75 18.0 -4.55 Q18.15 -4.3 18.55 -4.3 L18.7 -4.3 18.75 -4.3 M25.7 -9.85 L25.35 -9.65 25.3 -9.6 Q25.1 -9.85 24.35 -9.6 L23.7 -9.3 Q23.55 -9.7 23.55 -10.05 L23.65 -11.75 23.85 -11.7 24.9 -12.5 Q25.35 -12.5 25.45 -11.1 L25.7 -9.85 M25.3 -6.45 L25.3 -5.9 25.25 -5.2 25.25 -5.15 25.05 -5.2 24.85 -5.1 23.75 -5.0 Q23.25 -5.0 23.2 -6.25 L23.15 -7.2 23.3 -7.2 23.55 -7.25 23.7 -6.6 Q24.0 -5.9 24.45 -5.9 24.9 -5.9 25.3 -6.45 M20.65 3.85 L20.65 3.75 20.65 3.65 20.65 3.6 20.65 3.5 20.65 3.4 20.65 3.35 20.65 3.25 20.65 3.15 20.7 2.45 20.7 1.65 20.75 1.5 21.05 0.3 21.15 -0.05 21.15 -0.15 21.35 -1.25 21.45 -0.9 21.65 -0.65 22.1 -0.45 22.15 0.0 22.1 0.4 22.15 0.4 22.2 0.4 22.15 0.8 22.1 1.95 22.1 2.9 22.05 2.9 22.0 2.9 22.0 3.0 21.95 3.0 21.55 3.1 Q21.0 3.3 20.95 4.05 20.8 3.75 20.65 3.85 M21.1 4.95 L21.6 5.1 21.65 5.1 22.05 4.95 22.05 5.1 22.1 5.75 Q22.05 5.6 21.65 5.6 21.45 5.6 21.3 5.75 L21.05 6.2 21.0 5.5 21.1 4.95 M22.2 7.25 L22.2 7.35 22.15 7.35 22.05 7.0 22.15 6.8 22.15 7.25 22.2 7.25 M23.2 9.2 L23.15 9.35 Q22.95 9.45 22.7 9.9 22.1 10.6 21.7 10.6 21.3 10.6 21.05 9.95 L20.85 9.05 20.85 9.0 20.95 9.0 21.9 8.4 21.9 8.45 21.95 8.8 21.85 9.3 21.9 9.9 21.9 9.95 21.95 9.9 22.3 9.45 22.9 9.1 22.95 9.1 23.15 9.15 23.2 9.2 M20.3 10.25 L19.75 11.65 14.9 14.55 13.35 15.45 Q9.3 17.7 5.4 20.25 L3.0 21.8 3.0 21.6 2.85 21.05 2.65 20.35 2.6 20.05 2.55 19.9 2.25 19.3 2.1 19.1 3.25 18.6 4.15 18.3 4.65 18.1 5.4 17.65 5.7 17.4 Q6.05 17.1 6.4 17.1 L6.6 17.1 7.9 16.4 9.45 15.3 9.55 15.25 12.75 13.15 13.3 12.8 13.85 12.55 17.0 10.9 18.7 10.05 18.75 10.0 19.25 9.6 19.35 9.55 20.15 9.1 20.25 9.1 20.3 10.25 M22.4 -3.8 L22.55 -3.75 22.7 -3.65 22.6 -3.4 22.5 -2.5 22.15 -2.4 22.05 -2.45 22.05 -2.3 21.45 -1.8 21.5 -1.95 21.55 -2.05 21.7 -2.7 21.8 -2.95 21.85 -2.95 22.4 -3.8 M22.0 -4.05 L22.0 -4.15 22.05 -4.1 22.0 -4.05 M22.1 6.15 L22.05 6.15 22.1 6.05 22.1 6.15 M22.7 7.85 L22.55 8.05 22.5 8.1 22.4 8.05 22.7 7.85 M11.65 0.8 L11.7 0.95 12.8 1.3 12.75 1.5 12.75 1.7 12.3 2.9 Q12.2 3.1 12.25 3.25 12.25 3.7 12.65 4.15 13.0 4.6 13.5 4.75 L13.45 4.8 13.35 5.9 Q13.2 6.9 12.3 7.15 11.45 7.45 11.45 7.65 L11.5 7.8 11.35 7.8 11.35 7.35 Q11.55 6.85 11.55 2.75 L11.65 0.8 M13.9 4.8 L14.0 4.8 14.0 5.2 14.0 6.35 13.8 6.6 14.0 5.2 13.9 4.8 M10.05 0.9 L8.65 1.5 8.6 1.5 7.9 1.85 7.8 1.85 7.6 1.95 Q6.45 2.35 5.45 2.85 5.2 3.0 4.9 3.1 L4.75 3.2 4.8 2.85 4.8 2.75 4.8 2.65 Q4.8 2.25 4.6 2.15 L4.5 2.1 4.55 2.1 6.65 1.0 6.7 1.2 6.9 1.4 7.0 1.45 7.3 1.6 7.9 1.35 8.1 0.9 8.1 0.8 8.1 0.65 8.05 0.35 10.2 -0.7 10.15 0.5 10.05 0.9 M2.15 4.0 L2.2 4.7 1.85 6.8 1.05 7.65 0.95 7.7 0.8 7.8 0.6 7.8 0.7 7.85 -0.25 8.3 -1.1 8.45 -1.7 8.15 Q-2.05 7.95 -2.65 7.7 L-2.8 7.65 Q-4.0 7.0 -4.0 5.25 L-3.9 4.3 -3.1 4.65 -1.65 5.15 Q-1.2 5.8 -1.1 6.75 L-1.05 7.4 Q-1.0 6.05 -0.4 5.1 L-0.1 5.0 Q0.45 5.0 1.8 4.2 L2.15 4.0 M3.4 3.95 L3.35 3.35 3.4 3.3 4.05 3.55 3.4 3.95 M0.45 9.25 L0.6 9.2 0.6 9.6 0.3 9.75 0.2 9.75 -0.3 9.9 -0.35 9.95 -0.65 10.25 -0.65 10.3 -0.7 10.55 -0.7 10.65 -0.6 11.25 -0.45 11.55 -0.2 11.85 -0.2 11.95 -0.15 11.9 -0.1 11.85 0.1 11.9 0.2 11.9 0.4 11.9 0.4 11.95 0.4 12.1 0.1 12.55 -0.2 13.1 -0.25 14.3 0.05 15.2 0.3 15.65 0.35 15.65 0.45 15.65 0.4 16.55 0.15 16.5 0.1 16.5 -0.25 16.6 -0.35 16.65 Q-0.7 16.85 -0.75 17.35 L-0.8 17.55 -0.8 17.6 -0.6 18.0 -0.65 18.1 -0.65 18.15 -0.55 18.25 0.0 18.6 0.4 18.6 0.4 18.95 0.4 19.0 0.1 19.2 -0.3 19.75 -0.1 20.0 -0.05 20.0 -0.95 20.65 -1.45 20.5 -1.1 20.5 -1.35 20.2 -2.15 19.6 -2.95 19.25 -2.95 18.8 -2.85 18.65 -2.55 18.65 -2.45 18.65 -2.35 18.65 Q-1.95 18.6 -1.75 18.35 -1.6 18.1 -1.6 17.85 -1.6 19.65 -1.4 19.95 L-1.2 20.0 -1.15 19.95 -1.1 18.75 Q-1.4 18.1 -1.35 15.0 L-1.1 10.5 -1.1 10.4 -1.05 9.95 -1.15 9.85 -1.4 9.5 -0.6 9.5 -0.45 9.5 -0.4 9.5 -0.1 9.45 0.15 9.35 0.4 9.25 0.45 9.25 M1.2 19.9 L1.35 20.3 1.65 21.2 1.75 21.6 1.95 22.3 1.9 22.7 1.95 23.0 1.95 23.05 1.35 23.8 1.1 23.95 1.05 23.85 1.3 23.2 1.55 22.1 1.45 21.45 1.2 22.1 0.8 22.5 0.6 22.4 0.5 22.65 0.2 22.8 Q0.1 22.65 -0.1 22.65 L-0.1 22.95 -0.35 23.2 -0.6 22.65 -0.65 22.25 -0.55 21.35 -0.5 21.2 -0.45 21.15 -0.45 21.1 Q-0.15 20.65 1.1 20.3 L1.15 19.95 1.2 19.9 M-1.2 24.65 L-3.05 23.8 -3.25 23.3 -3.7 22.1 -3.7 22.05 -3.45 20.65 -3.45 20.6 -3.25 20.5 -2.55 20.5 -2.35 20.7 -2.3 20.7 -2.35 20.5 -1.55 20.5 Q-1.3 20.75 -1.15 21.35 L-1.05 23.25 Q-1.05 24.25 -1.2 24.65 M11.15 15.65 L11.15 15.7 11.4 15.5 11.15 15.65 M-25.95 -12.05 Q-25.6 -13.25 -24.85 -14.0 L-22.75 -15.95 -20.1 -16.85 -18.05 -17.2 -16.35 -17.3 -16.35 -17.2 -15.95 -17.05 -15.3 -17.15 -12.4 -16.25 -11.3 -15.95 -10.55 -15.6 -10.15 -15.4 -8.95 -14.05 -8.0 -12.65 -6.75 -10.1 Q-5.9 -8.15 -5.8 -7.25 L-6.8 -8.85 -8.05 -10.6 -10.5 -12.35 Q-11.15 -12.85 -13.55 -13.7 -16.45 -14.75 -17.9 -14.75 -20.55 -14.8 -22.2 -13.6 -23.55 -12.6 -23.55 -11.55 L-23.55 -11.4 -24.55 -11.85 -26.0 -11.7 -25.95 -12.05 M-1.3 -1.9 L-1.25 -1.8 -1.35 -1.9 -1.3 -1.9 M-3.6 -2.45 L-4.7 -2.15 -4.7 -2.6 -4.6 -2.65 -3.6 -2.45 M-17.15 -13.95 L-17.8 -14.0 -18.75 -14.0 -18.0 -14.05 -17.15 -13.95 M-23.9 -14.55 L-23.95 -14.5 -23.85 -14.5 -23.9 -14.55 M-23.5 -9.5 L-23.55 -9.3 -23.5 -7.65 -23.5 -7.5 -24.6 -7.65 -26.5 -7.95 -26.6 -9.05 -26.55 -9.7 -26.3 -10.35 -26.2 -10.7 -25.8 -10.6 -24.25 -10.25 -23.75 -9.75 -23.5 -9.5 M-23.0 -1.65 L-24.75 -2.4 -25.35 -2.65 Q-26.05 -4.5 -25.9 -6.2 L-25.2 -6.0 -24.5 -5.65 Q-23.9 -5.15 -23.25 -5.05 L-23.15 -5.0 -23.2 -4.7 -23.25 -3.95 -23.15 -2.55 -23.0 -1.65 M-3.6 -4.6 L-3.65 -4.6 -3.6 -4.65 -3.6 -4.6 M-2.15 9.35 L-2.1 9.35 -1.7 9.45 -1.4 9.5 -1.4 10.05 -1.45 10.15 -1.45 10.5 -1.35 11.5 -1.25 12.9 -1.35 13.5 -1.5 15.0 -1.6 17.6 Q-1.65 16.6 -2.55 16.7 L-2.6 16.7 -2.9 16.75 -2.85 11.6 -2.4 11.75 -2.35 11.75 -1.6 11.25 -1.45 10.7 Q-1.45 9.8 -2.35 9.8 L-2.6 9.85 -2.7 9.9 -2.8 9.85 -2.8 9.1 -2.15 9.35 M-1.7 14.5 L-1.75 15.4 -1.7 15.1 -1.7 14.5 M-3.15 22.3 L-3.25 21.9 -3.1 22.5 -3.15 22.3 M-22.4 9.75 L-22.35 10.0 -21.8 10.7 -21.6 10.85 -21.35 11.0 -21.3 11.1 -21.25 11.25 -21.2 11.8 -21.2 14.0 -21.4 14.0 -21.4 13.75 Q-21.4 12.85 -21.75 12.1 L-21.8 11.95 -22.5 10.75 -22.65 10.7 -23.0 10.5 -23.95 9.8 -23.05 9.8 -22.95 9.75 -22.75 9.6 -22.4 9.75" fill="#e0aa15" fill-rule="evenodd" stroke="none"/>
    <path d="M-2.4 -13.95 L-0.75 -14.55 1.7 -15.2 7.2 -17.1 12.2 -19.05 14.2 -19.75 16.85 -20.4 16.15 -20.0 12.5 -18.4 8.15 -16.65 2.6 -14.75 -1.95 -13.35 -2.4 -13.95 M0.85 -8.9 Q1.0 -9.4 2.6 -10.1 L5.4 -11.15 10.55 -13.45 15.1 -15.55 19.6 -17.35 19.25 -17.05 15.65 -15.1 11.2 -12.95 3.25 -9.55 1.35 -8.5 1.15 -8.45 1.05 -8.45 0.85 -8.9 M2.9 -3.7 L2.9 -3.85 Q2.9 -4.4 6.2 -5.9 L12.8 -8.85 Q15.6 -10.25 22.45 -12.95 L21.8 -12.45 20.6 -11.9 18.15 -10.85 8.2 -6.0 Q7.3 -5.65 5.15 -4.5 L3.2 -3.5 2.9 -3.7 M-6.15 -17.7 Q-5.55 -18.25 -2.45 -19.25 L1.85 -20.55 Q3.65 -21.0 6.55 -22.25 7.95 -22.95 10.75 -23.3 L10.45 -23.15 7.2 -21.8 2.5 -20.0 -1.8 -18.7 -5.45 -17.25 -6.15 -17.7 M14.7 7.6 L14.9 7.45 16.25 6.85 15.5 7.2 14.7 7.6 M18.85 6.2 L17.5 6.95 16.3 7.4 16.15 7.5 16.5 7.25 18.85 6.2 M11.25 10.05 L10.3 10.65 7.15 12.45 6.85 12.65 5.7 13.25 Q3.05 14.7 2.1 14.95 L1.9 14.95 3.5 13.9 Q4.95 13.1 5.95 12.65 L10.6 10.15 12.7 9.15 11.25 10.05 M3.25 13.55 Q2.15 14.2 1.75 14.55 L1.75 14.35 2.4 14.0 3.25 13.55" fill="#794b23" fill-rule="evenodd" stroke="none"/>
    <path d="M9.45 -24.9 L9.45 -25.0 10.55 -25.25 11.75 -25.4 Q12.8 -25.6 14.35 -25.4 L16.85 -24.7 Q18.9 -24.0 21.05 -22.5 23.3 -21.0 24.7 -18.25 25.6 -16.65 25.6 -15.25 L25.2 -14.65 25.15 -14.65 23.8 -14.05 23.75 -14.5 24.0 -14.8 24.6 -15.5 24.35 -16.9 23.85 -18.2 22.8 -19.65 21.9 -20.9 Q19.7 -23.0 18.65 -23.5 L16.45 -24.45 13.95 -25.1 10.95 -24.85 10.45 -24.7 9.45 -24.9 M-14.15 -18.2 Q-12.7 -18.15 -10.05 -16.85 -8.2 -15.95 -7.1 -15.15 -6.05 -14.4 -5.2 -13.25 L-3.8 -11.3 Q-1.95 -9.0 -0.65 -5.95 0.35 -3.65 0.5 -3.65 L0.7 -3.75 1.45 -3.8 1.0 -5.4 0.6 -7.0 -0.1 -8.8 -0.7 -10.15 -0.7 -10.25 Q1.15 -7.3 1.75 -4.95 L2.15 -3.25 1.45 -2.95 -0.3 -2.15 -1.3 -5.05 -1.9 -6.45 -2.65 -8.0 -4.25 -10.65 -5.3 -12.1 -6.4 -13.4 -8.0 -15.0 -8.1 -15.05 -8.2 -15.1 -10.9 -16.8 -13.2 -17.5 -15.05 -17.95 -14.15 -18.2 M2.5 -1.95 L2.8 -1.8 1.8 -1.5 2.2 -1.65 2.55 -1.8 2.5 -1.95 M-1.05 3.95 L-1.95 3.6 -2.0 3.25 -2.0 2.5 Q-1.9 3.55 -1.6 3.55 L-1.45 3.45 -1.35 3.25 -1.55 0.55 Q-1.6 -0.25 -2.0 -0.75 -2.2 -1.1 -3.25 -1.4 L-3.55 -1.5 -1.75 -1.2 Q-1.05 -0.55 -1.15 0.7 L-1.2 0.95 -1.05 3.95 M-0.25 -1.2 L-0.2 -1.2 -0.15 -1.25 0.0 -1.25 0.1 -1.25 0.1 -1.3 1.05 -1.65 0.85 -1.45 0.1 -0.35 -0.2 2.05 -0.2 2.5 Q-0.15 2.9 0.1 2.9 L0.25 2.9 -0.1 3.35 -0.35 3.15 -0.4 2.65 -0.5 -0.5 -0.25 -1.2 M19.3 -5.55 L19.45 -4.95 19.3 -4.55 Q19.1 -4.3 18.8 -4.3 L18.75 -4.3 18.95 -4.35 19.1 -4.4 19.1 -4.5 19.3 -4.8 19.2 -4.65 18.8 -4.45 18.45 -4.5 18.3 -4.6 18.25 -4.9 19.2 -5.45 19.3 -5.55 M23.65 -11.75 L23.75 -12.5 24.5 -12.95 25.55 -13.45 25.55 -13.5 Q25.55 -13.8 25.9 -13.8 26.3 -13.8 26.3 -13.5 L26.25 -13.25 26.35 -12.05 26.05 -10.1 25.7 -9.85 25.45 -11.1 Q25.35 -12.5 24.9 -12.5 L23.85 -11.7 23.65 -11.75 M25.05 -8.1 L25.3 -6.45 Q24.9 -5.9 24.45 -5.9 24.0 -5.9 23.7 -6.6 L23.55 -7.25 23.65 -7.45 Q24.1 -7.5 24.65 -7.85 L25.05 -8.1 M22.15 4.2 L21.9 4.2 21.45 3.95 21.3 3.65 21.3 3.6 21.5 3.2 21.55 3.1 21.95 3.0 22.0 3.0 22.05 3.0 22.1 3.0 Q22.6 3.1 22.6 3.6 L22.15 4.2 M22.2 7.35 L22.2 7.6 22.95 7.7 22.85 7.75 22.7 7.85 22.4 8.05 21.9 8.4 20.95 9.0 20.85 9.0 20.75 8.9 20.7 8.75 20.8 8.6 20.8 8.55 20.6 8.55 20.75 7.95 Q20.8 7.85 20.9 7.85 L21.25 7.7 22.15 7.35 22.2 7.35 M21.45 -1.8 L22.05 -2.3 22.05 -2.45 22.15 -2.4 22.5 -2.5 22.45 -2.4 22.8 -2.05 22.75 -2.0 22.8 -1.65 22.65 -1.15 22.45 -0.95 22.15 -0.9 Q21.65 -0.9 21.5 -1.25 L21.45 -1.65 21.45 -1.7 21.45 -1.8 M4.35 3.15 L4.25 3.15 3.9 3.05 4.35 2.15 4.45 2.1 4.6 2.15 Q4.8 2.25 4.8 2.65 L4.8 2.75 4.8 2.85 Q4.75 2.85 4.6 3.0 L4.35 3.15 M7.0 1.45 L7.35 1.5 7.7 1.35 7.5 1.4 7.2 1.35 7.0 1.2 6.95 1.15 6.95 0.9 6.95 0.85 7.9 0.4 8.0 0.55 8.05 0.85 8.05 1.05 8.1 0.8 8.1 0.9 7.9 1.35 7.3 1.6 7.0 1.45 M-1.1 5.2 L-1.0 5.2 -0.4 5.1 Q-1.0 6.05 -1.05 7.4 L-1.05 6.75 -1.1 6.35 -1.1 5.2 M0.8 11.35 L0.55 11.35 Q0.0 11.35 -0.15 11.05 L-0.2 10.7 -0.15 10.5 Q-0.05 10.15 0.3 10.05 L0.5 10.0 0.55 10.0 Q1.0 10.0 1.15 10.35 L1.1 10.7 1.1 11.15 0.8 11.35 M0.55 18.2 L0.35 18.2 0.25 18.2 -0.1 17.8 -0.2 17.5 -0.15 17.15 -0.1 17.1 0.15 16.85 0.4 16.75 Q0.95 16.8 0.95 17.5 L0.95 17.65 0.95 17.8 0.55 18.2 M-26.2 -10.7 Q-25.95 -11.1 -25.3 -11.1 L-24.55 -10.95 Q-23.95 -10.8 -23.75 -10.5 -23.5 -10.25 -23.5 -9.5 L-23.75 -9.75 -24.25 -10.25 -25.8 -10.6 -26.2 -10.7 M-21.05 -2.55 L-21.1 -2.8 Q-21.1 -3.25 -20.55 -3.3 L-20.5 -3.3 Q-20.0 -3.3 -20.0 -2.8 L-20.15 -2.4 -20.45 -2.2 -20.55 -2.2 -20.85 -2.25 -20.9 -2.3 -21.05 -2.55 M-16.15 -0.25 L-16.45 -0.2 -16.75 -0.2 -16.85 -0.25 -16.95 -0.35 -17.05 -0.8 Q-17.05 -1.35 -16.5 -1.4 L-16.45 -1.4 Q-15.9 -1.35 -15.9 -0.75 L-15.9 -0.65 -16.1 -0.3 -16.15 -0.25 M-10.35 2.1 L-9.95 2.0 Q-9.35 2.0 -9.35 2.6 L-9.45 2.9 -9.9 3.2 -9.95 3.2 Q-10.3 3.2 -10.45 2.9 L-10.55 2.6 -10.35 2.1 M-7.05 3.65 L-7.1 3.7 -6.7 3.55 -6.45 3.55 Q-5.95 3.65 -5.95 4.2 L-6.25 4.7 -6.35 4.8 -6.6 4.85 -7.2 4.45 -7.25 4.2 -7.15 3.7 -7.05 3.65 M-2.25 11.2 L-2.6 11.25 -2.85 11.2 -3.0 10.9 -3.05 10.7 -3.05 10.5 Q-3.05 10.1 -2.55 10.1 L-2.5 10.1 -2.25 10.2 -2.05 10.65 -2.2 11.1 -2.25 11.2 M-2.25 18.05 Q-2.45 18.4 -2.95 18.4 L-3.0 18.4 -3.45 18.15 -3.45 17.9 -3.45 17.7 -3.2 17.2 -2.8 17.0 -2.3 17.1 Q-2.15 17.2 -2.15 17.65 L-2.15 17.7 -2.15 17.85 -2.25 18.05" fill="#eed549" fill-rule="evenodd" stroke="none"/>
    <path d="M16.15 -20.0 L16.5 -20.05 Q17.0 -20.0 16.15 -19.55 L14.9 -19.0 7.8 -16.15 5.4 -15.3 2.8 -14.5 1.55 -14.2 0.3 -13.7 -1.65 -12.9 -1.95 -13.35 2.6 -14.75 8.15 -16.65 12.5 -18.4 16.15 -20.0 M19.25 -17.05 L18.55 -16.3 Q17.35 -15.3 15.1 -14.4 L10.25 -12.25 Q7.05 -10.85 5.6 -10.05 L3.35 -8.95 2.25 -8.3 1.5 -7.8 1.3 -7.8 1.15 -8.25 1.35 -8.5 3.25 -9.55 11.2 -12.95 15.65 -15.1 19.25 -17.05 M2.7 -3.55 L2.9 -3.7 3.2 -3.5 5.15 -4.5 Q7.3 -5.65 8.2 -6.0 L18.15 -10.85 20.6 -11.9 21.8 -12.45 22.7 -12.85 22.6 -12.1 19.1 -10.55 12.35 -7.8 9.9 -6.75 Q8.35 -6.1 7.35 -5.5 L5.05 -4.15 3.3 -3.1 2.8 -3.25 2.7 -3.55 M10.45 -23.15 Q10.8 -23.1 9.65 -22.4 L6.95 -21.2 3.0 -19.75 -1.3 -18.3 -4.9 -16.75 -5.45 -17.25 -1.8 -18.7 2.5 -20.0 7.2 -21.8 10.45 -23.15 M20.2 0.35 L20.25 0.3 20.3 0.35 20.3 0.5 19.95 0.8 Q19.05 1.65 18.0 2.05 L17.9 2.1 16.2 3.1 16.25 2.85 16.25 2.7 17.05 2.2 17.75 1.8 19.9 0.6 20.1 0.45 20.2 0.35 M16.6 7.8 L16.35 7.8 Q13.05 9.75 9.5 11.35 L8.7 11.9 6.15 13.3 Q5.25 13.75 3.15 14.95 L1.7 15.8 1.7 15.1 1.9 14.95 2.1 14.95 Q3.05 14.7 5.7 13.25 L6.85 12.65 7.15 12.45 10.3 10.65 11.25 10.05 16.05 7.55 16.3 7.5 16.55 7.55 16.6 7.8" fill="#cba582" fill-rule="evenodd" stroke="none"/>
    <path d="M-2.7 3.3 Q-4.2 2.75 -4.25 2.6 L-4.45 2.0 -4.45 1.8 Q-4.25 1.6 -4.1 2.05 L-3.75 2.7 -2.8 3.25 -2.7 3.3 M11.85 -5.65 L11.8 -4.6 11.8 -2.8 11.85 -1.7 14.7 -2.95 14.35 -2.35 Q13.95 -2.05 11.65 -1.1 L11.6 -1.1 11.55 -1.15 11.5 -1.25 Q11.35 -1.6 11.35 -2.8 L11.4 -4.75 11.35 -5.1 11.65 -5.55 11.85 -5.65 M25.3 -9.6 L23.85 -8.9 23.7 -9.3 24.35 -9.6 Q25.1 -9.85 25.3 -9.6 M-16.35 -17.3 L-16.0 -17.35 -14.15 -16.95 -12.05 -16.35 -11.3 -15.95 -12.4 -16.25 -15.3 -17.15 -15.95 -17.05 -16.35 -17.2 -16.35 -17.3 M-10.15 -15.4 Q-8.8 -14.65 -8.2 -14.1 -6.8 -12.85 -4.9 -10.05 L-3.05 -6.65 Q-2.15 -4.8 -1.9 -3.6 L-1.3 -1.9 -1.35 -1.9 -2.05 -2.15 -3.25 -2.4 -3.6 -2.45 -4.6 -2.65 -4.7 -2.6 -4.7 -3.0 -4.8 -3.65 -4.85 -3.65 Q-4.9 -4.65 -5.2 -5.4 -5.95 -7.45 -7.5 -9.45 -11.7 -13.5 -17.15 -13.95 L-18.0 -14.05 -18.75 -14.0 Q-20.85 -14.0 -21.9 -13.45 -23.0 -12.85 -23.3 -11.15 L-23.55 -11.4 -23.55 -11.55 Q-23.55 -12.6 -22.2 -13.6 -20.55 -14.8 -17.9 -14.75 -16.45 -14.75 -13.55 -13.7 -11.15 -12.85 -10.5 -12.35 L-8.05 -10.6 -6.8 -8.85 -5.8 -7.25 Q-5.9 -8.15 -6.75 -10.1 L-8.0 -12.65 -8.95 -14.05 -10.15 -15.4 M-23.5 -7.5 Q-23.5 -6.65 -23.8 -6.7 L-25.1 -7.0 -26.05 -7.3 -26.5 -7.95 -24.6 -7.65 -23.5 -7.5 M-3.6 -4.6 L-3.6 -4.65 -3.65 -4.6 -3.6 -4.6" fill="#c59412" fill-rule="evenodd" stroke="none"/>
    <path d="M25.25 -5.15 L25.15 -4.55 25.15 -4.7 25.25 -5.15 M-9.05 12.4 L-8.95 12.3 -9.0 12.55 -9.35 13.5 -9.4 13.5 -9.4 13.45 -9.35 13.35 -9.05 12.55 -9.05 12.4 M-1.1 6.75 L-1.05 6.75 -1.05 7.4 -1.1 6.75" fill="#faf0c9" fill-rule="evenodd" stroke="none"/>
    <path d="M25.15 -4.55 L25.15 -4.5 23.9 -4.35 Q22.95 -4.35 22.75 -4.65 22.95 -5.95 22.75 -6.75 L22.75 -7.35 22.75 -7.5 22.8 -7.5 22.95 -7.5 22.95 -7.4 23.15 -7.2 23.2 -6.25 Q23.25 -5.0 23.75 -5.0 L24.85 -5.1 25.05 -5.2 25.25 -5.15 25.15 -4.7 25.15 -4.55 M20.7 7.65 L21.25 7.55 21.25 7.5 Q20.95 7.0 20.8 5.75 L20.65 3.85 Q20.8 3.75 20.95 4.05 L20.95 4.15 20.95 4.35 21.0 4.8 21.1 4.95 21.0 5.5 21.05 6.2 21.3 5.75 Q21.45 5.6 21.65 5.6 22.05 5.6 22.1 5.75 L22.15 5.9 22.1 6.05 22.05 6.15 22.1 6.15 22.15 6.15 22.15 6.45 22.2 6.8 22.15 6.8 22.05 7.0 22.15 7.35 21.25 7.7 20.9 7.85 20.75 7.75 20.7 7.65 M23.15 9.35 L22.65 10.65 22.15 11.25 21.8 11.55 21.2 11.9 21.05 11.95 20.7 11.95 20.5 9.5 20.5 9.15 20.5 9.05 20.5 9.0 20.5 8.85 20.5 8.8 20.6 8.55 20.8 8.55 20.8 8.6 20.7 8.75 20.75 8.9 20.85 9.0 20.85 9.05 21.05 9.95 Q21.3 10.6 21.7 10.6 22.1 10.6 22.7 9.9 22.95 9.45 23.15 9.35 M20.45 8.85 L20.45 9.1 20.3 10.25 20.25 9.1 20.25 9.05 20.45 8.85 M22.4 -3.8 L21.85 -2.95 21.8 -2.95 22.0 -4.05 22.05 -4.1 22.3 -3.85 22.4 -3.8 M-3.05 23.8 L-3.8 23.4 Q-4.25 22.6 -4.0 21.7 L-3.8 21.0 -3.65 20.65 -3.45 20.6 -3.45 20.65 -3.7 22.05 -3.7 22.1 -3.75 22.4 -3.25 23.3 -3.05 23.8 M-14.25 -0.5 L-10.15 1.7 Q-10.85 1.9 -10.85 2.65 L-10.9 2.8 -10.8 3.35 -10.8 3.4 -10.95 3.35 -11.5 3.05 -11.8 2.9 -12.05 2.8 -12.45 2.65 -12.35 2.5 -11.65 2.65 -11.55 2.55 -11.4 2.4 -11.35 2.35 -11.25 2.1 Q-11.9 1.0 -12.8 0.7 L-13.05 0.6 -14.7 0.65 -15.25 0.85 -15.4 0.95 -15.75 1.1 -16.05 1.3 -18.95 -0.35 -21.3 -1.9 -21.7 -2.2 -21.7 -2.35 -21.65 -3.0 -21.65 -3.2 -21.65 -3.25 -21.65 -3.5 -21.65 -3.9 -21.65 -4.3 -20.55 -3.75 -20.9 -3.55 -20.9 -3.5 -21.15 -3.15 -21.2 -3.1 -21.25 -2.8 -21.0 -2.15 Q-20.7 -1.55 -20.0 -1.55 -19.1 -1.55 -19.1 -2.25 L-19.2 -3.1 -17.8 -2.45 -17.8 -2.4 -16.5 -1.7 Q-17.15 -1.5 -17.2 -0.6 L-17.15 -0.5 -17.15 -0.4 -17.15 0.05 Q-17.0 0.5 -16.4 0.5 L-15.9 0.45 -15.4 0.0 -15.2 -0.65 -15.2 -1.0 -14.25 -0.5 M-20.9 -2.3 L-21.0 -2.35 -21.05 -2.55 -20.9 -2.3 M-23.0 -1.65 L-23.15 -2.55 -23.25 -3.95 -23.2 -4.7 -23.15 -5.0 -22.95 -4.9 -22.6 -1.65 -22.65 -1.6 -22.6 -1.55 -22.55 -1.45 -22.7 -1.5 -23.0 -1.65 M-23.65 2.5 L-23.6 2.5 -23.35 2.6 -23.2 2.45 -23.05 2.25 -23.05 2.0 -23.2 1.3 Q-23.4 0.9 -23.65 0.85 L-23.75 0.8 -23.85 0.8 -23.85 0.55 -24.0 -0.45 -24.0 -0.55 -24.0 -0.65 -23.95 -0.65 -23.45 -0.7 -23.05 -0.3 -23.0 -0.3 -23.0 -0.2 -22.95 -0.15 -22.95 -0.05 -22.95 0.05 -22.95 0.25 -22.9 0.55 -22.95 0.8 -22.95 0.9 -22.9 0.9 -22.85 0.9 -22.85 0.95 -22.75 2.15 -22.75 2.2 -22.7 2.4 -22.8 2.55 -22.7 3.3 -22.75 3.4 -22.8 3.5 -22.65 4.65 -22.65 4.8 -22.55 5.25 -22.5 5.65 -22.55 5.85 Q-22.85 5.55 -23.3 5.55 L-23.35 5.55 -23.5 4.5 -23.5 4.3 -23.55 4.05 -23.55 4.0 -23.7 3.1 -23.7 3.0 -23.65 2.5 M-16.45 1.8 L-16.4 1.8 -16.35 1.75 -16.5 2.25 -16.45 1.9 -16.45 1.8 M-19.85 11.1 L-19.8 11.5 -19.75 11.7 -19.6 12.4 -19.65 12.4 -19.85 12.25 -19.95 11.65 -20.1 10.95 -19.9 11.05 -19.85 11.1 M-9.4 3.7 L-9.3 3.6 -9.15 3.45 Q-8.8 3.15 -8.8 2.7 L-8.85 2.45 -6.95 3.5 -7.15 3.7 -7.25 4.2 -7.25 4.45 -7.25 4.65 -7.25 4.9 -7.25 5.0 -6.8 5.3 -6.45 5.35 -6.4 5.35 -6.1 5.35 -5.6 4.95 -5.5 4.4 -5.5 4.25 -5.4 4.25 -5.45 6.35 -5.5 6.3 -5.5 6.45 -5.7 7.0 -8.45 5.75 Q-9.15 4.6 -10.2 3.85 L-9.9 3.85 -9.8 3.85 -9.75 3.85 -9.55 3.9 -9.4 3.7 M-4.7 20.0 L-5.2 21.35 -11.6 18.45 -11.6 18.4 -11.6 18.3 -11.45 18.25 -11.05 18.1 -10.75 17.95 -10.45 17.75 -10.4 17.75 -9.55 17.05 -8.0 17.8 -7.8 18.4 -6.8 19.05 -5.5 19.9 -5.25 19.7 -5.15 19.65 -4.8 19.95 -4.75 19.95 -4.7 20.0 M-11.9 4.25 L-11.9 4.35 -12.0 4.55 -12.1 4.75 -10.45 6.65 Q-8.8 8.75 -8.8 10.45 L-8.85 10.75 Q-8.9 9.1 -9.85 7.6 -10.95 5.6 -13.05 4.75 L-13.0 3.75 -12.7 3.9 -11.9 4.25 M-17.65 11.5 L-17.9 10.7 -18.05 9.4 -17.9 8.3 -17.85 8.05 -17.2 6.4 -17.2 5.65 -17.2 5.6 -17.2 5.45 -17.15 5.4 -17.05 5.25 -16.65 5.4 -16.45 5.3 -16.15 5.9 -16.4 6.35 -16.5 6.4 -16.55 6.55 -17.0 7.25 -17.3 7.8 -17.55 8.35 -17.7 8.8 -17.85 9.85 -17.65 11.5 M-4.1 8.7 L-4.1 8.55 -4.05 8.5 -4.1 8.7 M-14.1 1.7 L-14.05 1.7 -13.75 1.7 -13.5 1.75 -13.7 2.1 -13.75 2.4 -13.9 2.7 -14.05 3.15 -14.15 3.35 -14.25 4.0 -14.15 5.5 -14.75 5.15 -14.75 4.8 -15.1 4.9 -15.25 4.8 -15.4 4.8 -15.5 3.55 -14.75 3.8 -14.65 3.0 -14.5 2.5 -14.1 1.7 M-22.75 9.6 L-22.75 9.55 -23.0 8.1 -23.05 7.65 Q-22.8 7.55 -22.6 7.3 L-22.5 7.25 -22.5 7.35 -22.45 7.75 -22.45 8.35 -22.4 9.75 -22.75 9.6" fill="#b67c1c" fill-rule="evenodd" stroke="none"/>
    <path d="M20.75 -3.45 L20.65 -3.55 20.75 -3.55 20.75 -3.45" fill="#8c4115" fill-rule="evenodd" stroke="none"/>
    <path d="M22.15 -0.45 L22.2 -0.45 22.15 0.4 22.1 0.4 22.15 0.0 22.1 -0.45 22.15 -0.45" fill="#e9b94b" fill-rule="evenodd" stroke="none"/>
    <path d="M16.3 1.95 L16.35 1.9 16.65 1.7 17.4 1.35 18.85 0.65 Q19.65 0.2 20.15 0.25 L20.2 0.25 20.2 0.35 20.1 0.45 19.9 0.6 17.75 1.8 17.05 2.2 16.25 2.7 16.3 2.5 16.3 1.95 M13.9 7.95 L14.7 7.6 15.5 7.2 16.25 6.85 16.55 6.65 Q20.25 4.75 20.25 5.45 L19.85 5.65 19.6 5.8 19.55 5.8 19.45 5.85 18.95 6.15 18.85 6.2 16.5 7.25 16.15 7.5 16.1 7.5 16.0 7.55 12.7 9.15 10.6 10.15 5.95 12.65 Q4.95 13.1 3.5 13.9 L1.9 14.95 1.7 15.1 1.75 14.55 Q2.15 14.2 3.25 13.55 L5.0 12.65 5.45 12.4 5.55 12.35 6.5 11.85 7.55 11.35 10.65 9.6 Q11.1 9.25 11.8 9.0 L11.85 8.95 11.9 8.95 12.65 8.6 13.9 7.95 M1.9 9.05 L5.85 6.85 Q6.55 6.35 7.7 5.95 L7.95 5.85 8.3 5.7 9.05 5.25 9.6 4.9 Q9.85 4.7 10.05 4.65 L10.05 5.3 9.9 5.35 Q8.95 6.0 6.3 7.25 L1.95 9.7 1.9 9.7 1.9 9.05" fill="#7d522a" fill-rule="evenodd" stroke="none"/>
    <path d="M22.0 3.0 L22.0 2.9 22.05 2.9 22.05 3.0 22.0 3.0" fill="#f2d376" fill-rule="evenodd" stroke="none"/>
    <path d="M22.85 7.75 L22.9 7.75 22.55 8.05 22.7 7.85 22.85 7.75 M21.9 8.4 L22.4 8.05 22.5 8.1 21.9 8.45 21.9 8.4" fill="#f2d175" fill-rule="evenodd" stroke="none"/>
    <path d="M19.85 5.75 L19.75 5.9 16.6 7.8 16.55 7.55 16.3 7.5 16.3 7.4 17.5 6.95 18.85 6.2 18.95 6.15 19.45 5.85 19.55 5.8 19.6 5.8 19.85 5.75" fill="#cd9b77" fill-rule="evenodd" stroke="none"/>
    <path d="M19.85 5.65 L19.85 5.75 19.6 5.8 19.85 5.65 M16.3 7.4 L16.3 7.5 16.05 7.55 11.25 10.05 12.7 9.15 16.0 7.55 16.1 7.5 16.15 7.5 16.3 7.4" fill="#7b431b" fill-rule="evenodd" stroke="none"/>
    <path d="M1.6 18.35 L6.75 15.65 Q12.6 12.7 14.15 12.2 L14.2 12.2 14.2 12.3 13.85 12.55 13.3 12.8 12.75 13.15 11.45 13.85 9.15 15.1 7.8 15.85 4.35 17.8 2.05 18.95 2.05 19.0 1.95 18.9 1.95 18.85 1.65 18.4 1.6 18.4 1.6 18.35 M16.4 11.1 L16.35 10.9 Q16.35 10.7 18.1 9.55 L19.65 8.5 19.65 8.35 20.4 7.8 20.5 7.75 20.55 7.7 20.6 7.7 20.7 7.65 20.75 7.75 20.9 7.85 Q20.8 7.85 20.75 7.95 L20.6 8.55 20.5 8.8 20.45 8.75 20.45 8.85 20.25 9.05 20.25 9.1 20.15 9.1 19.35 9.55 19.25 9.6 18.75 10.0 17.4 10.65 17.25 10.65 17.25 10.55 16.4 11.05 16.4 11.1 M-16.6 -6.6 L-17.75 -7.2 -21.0 -8.95 Q-17.55 -7.95 -13.6 -5.9 L-11.15 -4.5 Q-9.7 -3.6 -8.45 -3.05 L-5.6 -2.0 -5.55 -1.55 -5.65 -1.05 -5.7 -1.1 -9.15 -2.6 Q-10.25 -3.1 -11.6 -3.9 L-13.95 -5.25 -16.6 -6.6 M-19.85 -11.95 L-20.0 -12.1 Q-19.15 -12.1 -16.2 -11.1 L-12.8 -9.85 -9.55 -8.55 -8.65 -8.2 -8.1 -8.0 -7.25 -7.8 -7.15 -7.8 -7.05 -7.55 -7.0 -7.5 -6.3 -6.05 -6.4 -6.05 -6.5 -6.3 -6.7 -6.8 -7.45 -7.15 -8.5 -7.45 -9.25 -7.75 -13.4 -9.35 -17.4 -10.95 -19.85 -11.95 M-23.0 -0.3 L-22.95 -0.3 -22.95 -0.15 -23.0 -0.2 -23.0 -0.3 M-17.9 4.25 L-18.2 4.65 -19.3 4.1 Q-21.65 2.75 -21.75 2.7 -21.7 3.0 -21.95 3.05 L-21.95 2.85 -21.95 2.1 -21.6 2.15 Q-21.45 2.25 -21.05 2.5 L-19.75 3.25 -18.0 4.2 -17.9 4.25 M-19.6 7.5 L-19.75 7.95 -20.45 7.7 -21.35 7.15 -21.4 6.85 Q-21.3 6.65 -20.9 6.85 L-20.05 7.3 -19.6 7.5 M-4.4 19.3 L-4.65 19.4 -4.65 19.5 -4.65 19.55 -4.7 19.55 -4.75 19.85 -4.8 19.95 -5.15 19.65 -5.25 19.7 -6.85 18.5 -7.6 18.0 -8.0 17.8 -9.55 17.05 -8.9 16.4 -8.75 16.5 -7.55 17.45 -7.15 17.55 -7.05 17.55 -6.55 17.8 -6.0 17.95 -5.65 18.1 Q-4.4 18.6 -4.4 19.1 L-4.4 19.3 M-7.4 13.5 L-7.35 13.35 -7.3 13.15 -7.2 12.8 -5.95 13.35 Q-4.25 14.35 -4.25 14.8 L-4.35 14.95 -4.5 15.1 -6.25 14.1 -7.25 13.55 -7.4 13.5 M-7.0 9.95 L-7.1 9.25 -6.35 9.85 -5.1 10.4 Q-4.25 10.75 -4.25 11.05 L-4.45 11.3 -7.0 9.95 M-8.45 9.2 L-8.55 9.15 -8.5 9.0 -8.45 8.95 -8.4 9.25 -8.45 9.2 M-17.05 5.25 L-16.95 5.0 -16.9 4.95 -16.7 4.75 -16.4 5.25 -16.45 5.3 -16.65 5.4 -17.05 5.25 M-16.45 9.5 L-16.45 9.45 -16.4 9.25 Q-15.85 9.15 -13.35 10.35 -10.7 11.6 -10.2 12.1 L-10.3 12.45 -10.45 12.5 -10.85 12.45 -11.15 12.4 -13.9 10.9 -16.45 9.5" fill="#7b3b0f" fill-rule="evenodd" stroke="none"/>
    <path d="M14.2 12.2 L16.4 11.1 16.4 11.05 17.25 10.65 17.4 10.65 18.75 10.0 18.7 10.05 17.0 10.9 13.85 12.55 14.2 12.3 14.2 12.2 M9.45 15.3 L9.35 15.25 9.15 15.1 11.45 13.85 12.75 13.15 9.55 15.25 9.45 15.3" fill="#eed459" fill-rule="evenodd" stroke="none"/>
    <path d="M23.15 8.75 L23.15 9.05 23.15 9.15 22.95 9.1 22.9 9.1 23.15 8.75 M21.9 9.9 L21.95 9.9 21.9 9.95 21.9 9.9" fill="#eed242" fill-rule="evenodd" stroke="none"/>
    <path d="M14.3 3.5 L14.2 3.35 14.15 3.2 14.7 1.35 14.4 0.45 14.1 -0.1 14.1 -0.15 Q14.8 0.15 14.95 0.9 L15.05 1.5 15.1 2.05 14.95 2.5 14.75 3.15 14.75 3.2 14.7 3.25 14.3 3.5 M13.5 4.75 L13.9 4.8 14.0 5.2 13.8 6.6 Q12.75 7.85 11.5 7.8 L11.45 7.65 Q11.45 7.45 12.3 7.15 13.2 6.9 13.35 5.9 L13.45 4.8 13.5 4.75" fill="#f5d762" fill-rule="evenodd" stroke="none"/>
    <path d="M16.35 1.9 L16.4 1.85 16.65 1.7 16.35 1.9" fill="#84461d" fill-rule="evenodd" stroke="none"/>
    <path d="M11.35 7.35 L11.45 0.1 11.6 0.05 11.55 0.55 11.65 0.8 11.55 2.75 Q11.55 6.85 11.35 7.35 M-4.4 4.35 L-4.45 4.2 -4.45 4.1 -4.4 4.05 -4.4 4.2 -4.4 4.35 M-21.4 14.0 L-21.75 14.05 -21.8 14.05 -23.1 13.85 -23.35 13.85 -23.9 13.7 -23.95 13.65 -23.95 13.6 -24.05 13.3 -24.0 13.1 -24.0 13.0 -24.0 12.95 -24.35 9.8 -23.95 9.8 -23.0 10.5 -22.95 10.6 -22.85 10.65 -21.75 12.1 Q-21.4 12.85 -21.4 13.75 L-21.4 14.0" fill="#ce800b" fill-rule="evenodd" stroke="none"/>
    <path d="M8.65 1.5 L8.05 1.8 7.9 1.85 8.6 1.5 8.65 1.5 M3.4 5.55 L3.45 5.6 3.4 5.65 3.4 5.55 M0.8 7.8 L0.7 7.85 0.6 7.8 0.8 7.8" fill="#a46e3c" fill-rule="evenodd" stroke="none"/>
    <path d="M1.9 9.7 L1.95 9.7 6.3 7.25 Q8.95 6.0 9.9 5.35 L10.05 5.3 10.05 5.55 10.0 5.85 10.0 5.9 7.9 7.05 1.9 10.1 1.9 9.7" fill="#c8a987" fill-rule="evenodd" stroke="none"/>
    <path d="M2.1 19.1 L2.05 19.05 2.05 19.0 2.05 18.95 4.35 17.8 7.8 15.85 9.15 15.1 9.35 15.25 9.45 15.3 7.9 16.4 6.4 17.1 Q6.05 17.1 5.7 17.4 L5.4 17.65 4.15 18.3 3.25 18.6 2.1 19.1" fill="#e9d05d" fill-rule="evenodd" stroke="none"/>
    <path d="M7.9 16.4 L6.6 17.1 6.4 17.1 7.9 16.4 M5.4 17.65 L4.65 18.1 4.15 18.3 5.4 17.65 M11.15 15.65 L11.4 15.5 11.15 15.7 11.15 15.65" fill="#eaab24" fill-rule="evenodd" stroke="none"/>
    <path d="M-5.7 -0.3 L-5.75 0.45 -5.75 1.1 -5.7 1.45 -5.55 2.3 -6.35 1.9 -8.7 0.7 -13.9 -1.75 -17.0 -3.35 -19.1 -4.35 -22.7 -6.3 -22.65 -8.8 Q-22.65 -10.8 -22.1 -11.85 -21.7 -12.65 -21.2 -12.7 L-18.0 -13.2 Q-15.9 -13.2 -12.7 -11.75 L-9.9 -10.25 Q-8.2 -9.2 -7.25 -7.8 L-8.1 -8.0 -9.35 -8.5 -9.55 -8.55 -12.8 -9.85 -16.2 -11.1 Q-19.15 -12.1 -20.0 -12.1 L-19.85 -11.95 -20.15 -12.05 Q-20.65 -12.15 -17.75 -10.85 L-13.75 -9.15 Q-12.5 -8.75 -10.6 -7.7 L-8.55 -7.1 -7.65 -6.8 -7.45 -6.6 Q-7.2 -6.35 -7.0 -6.35 L-6.7 -6.4 -6.65 -6.2 -6.4 -6.05 Q-5.95 -4.55 -5.65 -2.45 L-5.6 -2.0 -8.45 -3.05 Q-9.7 -3.6 -11.15 -4.5 L-13.6 -5.9 Q-17.55 -7.95 -21.0 -8.95 L-17.75 -7.2 -16.6 -6.6 -17.5 -7.0 -21.4 -8.8 -18.4 -7.0 -13.95 -4.5 -9.4 -2.25 -7.3 -1.45 -6.6 -0.9 -5.75 -0.3 -5.7 -0.3 M-21.15 -0.5 L-20.6 -0.15 -18.25 1.1 -17.5 1.45 -17.3 1.55 -16.65 1.85 -16.45 1.8 -16.45 1.9 -16.5 2.25 -16.55 2.45 -16.55 2.55 -16.75 3.1 -16.85 3.25 -16.9 3.25 -17.35 3.65 -17.9 4.25 -18.0 4.2 -19.75 3.25 -21.05 2.5 Q-21.45 2.25 -21.6 2.15 L-21.95 2.1 -21.95 1.05 -21.95 0.9 -21.75 0.65 -21.7 0.6 -21.65 0.5 -21.65 0.45 -21.6 0.15 -21.6 0.1 -21.15 -0.5 M-18.2 4.65 L-18.5 5.05 -18.85 5.6 -19.0 5.9 -19.05 5.9 -19.2 5.9 -19.55 5.65 -19.6 5.65 -19.6 5.9 -19.5 6.25 -19.35 6.5 -19.4 6.65 -19.45 7.1 -19.5 7.15 -19.6 7.5 -20.05 7.3 -20.9 6.85 Q-21.3 6.65 -21.4 6.85 L-21.9 3.35 -21.95 3.05 Q-21.7 3.0 -21.75 2.7 -21.65 2.75 -19.3 4.1 L-18.2 4.65 M-20.1 10.95 L-20.2 10.5 -20.55 10.0 -21.0 9.7 -21.35 7.35 -21.35 7.15 -20.45 7.7 -19.75 7.95 -19.8 8.0 -19.85 8.05 -19.8 8.05 Q-20.15 9.5 -19.9 11.05 L-20.1 10.95 M-5.6 7.05 L-5.7 7.0 -5.5 6.45 -5.5 6.3 -5.45 6.35 -5.45 6.85 -5.6 7.05 M-9.8 3.85 L-9.5 3.75 -9.4 3.7 -9.55 3.9 -9.75 3.85 -9.8 3.85 M-7.4 8.15 L-7.35 7.6 -5.0 8.75 -4.7 8.9 -4.6 8.9 -4.5 8.9 -4.15 8.55 -4.1 8.55 -4.1 8.7 -4.05 8.9 -4.0 9.65 -4.05 10.3 Q-4.25 11.45 -4.1 13.55 L-4.25 19.2 -4.4 19.3 -4.4 19.1 Q-4.4 18.6 -5.65 18.1 L-6.0 17.95 -6.85 17.35 -7.05 17.55 -7.15 17.55 -7.55 17.45 -8.75 16.5 -8.9 16.4 Q-7.9 15.15 -7.4 13.5 L-7.25 13.55 -6.25 14.1 -4.5 15.1 -4.35 14.95 -4.25 14.8 Q-4.25 14.35 -5.95 13.35 L-7.2 12.8 -7.1 12.25 Q-6.9 11.05 -7.0 9.95 L-4.45 11.3 -4.25 11.05 Q-4.25 10.75 -5.1 10.4 L-6.35 9.85 -7.1 9.25 -7.4 8.15 M-17.5 1.7 L-17.2 1.85 -17.5 1.65 -17.5 1.7 M-20.1 5.6 L-20.1 5.45 -20.15 5.45 -20.15 5.6 -20.1 5.6 M-16.4 6.35 L-16.55 6.55 -16.5 6.4 -16.4 6.35 M-16.4 9.25 L-16.4 9.2 Q-16.2 8.35 -15.6 7.65 L-14.65 6.65 -13.75 7.3 -13.5 7.3 -12.7 6.45 -12.55 6.45 Q-10.45 8.0 -10.15 10.65 L-10.15 12.0 -10.2 12.05 -10.2 12.1 Q-10.7 11.6 -13.35 10.35 -15.85 9.15 -16.4 9.25 M-11.6 14.3 L-11.9 14.55 -12.95 14.9 -14.0 14.8 -14.4 14.65 -14.5 14.55 -14.95 14.15 -15.05 14.0 Q-16.2 12.55 -16.45 10.7 L-16.45 9.5 -13.9 10.9 -11.15 12.4 -10.85 12.45 -10.45 12.5 -10.3 12.45 Q-10.7 13.5 -11.6 14.3 M-21.05 2.5 L-20.9 2.3 -21.0 2.25 -21.05 2.45 -21.05 2.5" fill="#924e1a" fill-rule="evenodd" stroke="none"/>
    <path d="M-5.7 -0.3 L-5.75 -0.3 -6.6 -0.9 -7.3 -1.45 -9.4 -2.25 -13.95 -4.5 -18.4 -7.0 -21.4 -8.8 -17.5 -7.0 -16.6 -6.6 -13.95 -5.25 -11.6 -3.9 Q-10.25 -3.1 -9.15 -2.6 L-5.7 -1.1 -5.65 -1.05 -5.7 -0.3 M-6.4 -6.05 L-6.65 -6.2 -6.7 -6.4 -7.0 -6.35 Q-7.2 -6.35 -7.45 -6.6 L-7.65 -6.8 -8.55 -7.1 -10.6 -7.7 Q-12.5 -8.75 -13.75 -9.15 L-17.75 -10.85 Q-20.65 -12.15 -20.15 -12.05 L-19.85 -11.95 -17.4 -10.95 -13.4 -9.35 -9.25 -7.75 -8.5 -7.45 -7.45 -7.15 -6.7 -6.8 -6.5 -6.3 -6.4 -6.05 M-9.55 -8.55 L-9.35 -8.5 -8.1 -8.0 -8.65 -8.2 -9.55 -8.55" fill="#b35f20" fill-rule="evenodd" stroke="none"/>
    <path d="M1.05 -1.65 L1.95 -2.05 2.5 -1.95 2.55 -1.8 2.2 -1.65 1.8 -1.5 1.45 -1.25 1.05 -0.75 Q0.5 -0.1 0.5 0.35 L0.4 2.5 0.25 2.9 0.1 2.9 Q-0.15 2.9 -0.2 2.5 L-0.2 2.05 0.1 -0.35 0.85 -1.45 1.05 -1.65 M-4.3 -1.2 L-4.3 -1.25 Q-4.3 -1.65 -3.6 -1.5 L-3.55 -1.5 -3.25 -1.4 Q-2.2 -1.1 -2.0 -0.75 -1.6 -0.25 -1.55 0.55 L-1.35 3.25 -1.45 3.45 -1.6 3.55 Q-1.9 3.55 -2.0 2.5 L-2.1 1.05 -2.35 -0.3 -3.5 -0.85 Q-4.2 -1.05 -4.3 -1.2 M0.45 15.65 L0.35 15.65 0.3 15.65 0.05 15.2 -0.25 14.3 -0.2 13.1 0.1 12.55 0.4 12.1 0.5 12.3 0.45 15.65 M-0.15 11.9 L-0.2 11.95 -0.2 11.85 -0.15 11.9" fill="#fac84b" fill-rule="evenodd" stroke="none"/>
    <path d="M-15.5 3.55 L-15.5 3.5 -15.45 3.15 -15.35 3.15 -15.2 3.15 -14.95 3.1 -14.65 3.0 -14.75 3.8 -15.5 3.55" fill="#f2b710" fill-rule="evenodd" stroke="none"/>
    <path d="M-15.45 3.15 L-15.4 3.1 -15.35 3.15 -15.45 3.15" fill="#f8d664" fill-rule="evenodd" stroke="none"/>
    <path d="M-8.5 9.0 L-8.55 9.15 -8.45 9.2 Q-8.15 10.75 -8.45 12.35 L-8.85 13.65 -8.95 13.9 -9.65 15.2 -9.8 15.4 -10.55 16.25 -10.7 16.2 -10.75 16.2 -11.2 16.55 -11.3 16.6 -11.35 16.65 -11.4 16.7 -11.65 16.9 -11.75 16.95 -11.8 16.95 -11.8 17.0 -11.85 17.0 -12.2 17.05 -13.5 16.95 Q-15.05 16.6 -16.1 15.65 L-16.2 15.6 -16.55 14.8 Q-16.6 14.45 -17.2 13.9 L-18.0 13.0 -18.15 12.4 -18.3 12.4 -18.6 11.25 -18.75 10.35 -18.75 10.05 -18.6 9.8 -18.7 9.45 -18.7 9.4 -18.5 8.85 -18.55 8.55 -18.55 8.4 -18.55 8.35 -18.5 8.15 -18.15 6.9 -17.2 5.45 -17.2 5.6 -17.2 5.65 -17.2 6.4 -17.85 8.05 -17.9 8.3 -18.05 9.4 -17.9 10.7 -17.65 11.5 -16.9 13.5 Q-16.35 14.65 -15.35 15.45 L-15.1 15.8 Q-14.15 16.75 -13.6 16.75 L-13.25 16.75 Q-11.0 16.6 -9.8 14.4 L-9.4 13.65 -9.35 13.5 -9.0 12.55 -8.95 12.3 -9.05 12.4 -8.85 10.8 -8.85 10.75 -8.8 10.45 Q-8.8 8.75 -10.45 6.65 L-12.1 4.75 -12.0 4.55 -11.9 4.35 -11.9 4.25 -11.75 4.3 Q-9.4 5.75 -8.65 8.45 L-8.5 9.0" fill="#f3ad03" fill-rule="evenodd" stroke="none"/>
    <path d="M-21.05 2.5 L-21.05 2.45 -21.0 2.25 -20.9 2.3 -21.05 2.5" fill="#9d621b" fill-rule="evenodd" stroke="none"/>
    <path d="M-19.35 6.5 L-19.5 6.25 -19.6 5.9 -19.6 5.65 -19.55 5.65 -19.2 5.9 -19.05 5.9 -19.35 6.5 M-20.1 5.6 L-20.15 5.6 -20.15 5.45 -20.1 5.45 -20.1 5.6" fill="#964c16" fill-rule="evenodd" stroke="none"/>
    <path d="M-19.8 8.05 L-19.85 8.05 -19.8 8.0 -19.8 8.05" fill="#b0701f" fill-rule="evenodd" stroke="none"/>
    <path d="M-18.55 8.55 L-18.5 8.85 -18.7 9.4 -18.55 8.55 M-18.7 9.45 L-18.6 9.8 -18.75 10.05 -18.7 9.5 -18.7 9.45" fill="#f5af18" fill-rule="evenodd" stroke="none"/>
    <path d="M-12.7 6.45 L-12.6 6.4 -12.55 6.45 -12.7 6.45" fill="#f4c24a" fill-rule="evenodd" stroke="none"/>
    <path d="M-14.75 5.15 L-15.1 4.9 -14.75 4.8 -14.75 5.15" fill="#db9d3c" fill-rule="evenodd" stroke="none"/>
    <path d="M-23.75 2.9 L-23.75 2.8 -23.75 2.7 -23.7 2.55 -23.65 2.5 -23.7 3.0 -23.75 2.9 M-22.95 0.8 L-22.9 0.9 -22.95 0.9 -22.95 0.8 M-22.75 3.4 L-22.65 4.65 -22.8 3.5 -22.75 3.4" fill="#d3aa3f" fill-rule="evenodd" stroke="none"/>
    <path d="M-25.2 0.55 L-25.1 0.55 -25.1 0.8 -25.2 0.8 -25.2 0.55" fill="#575b70" fill-rule="evenodd" stroke="none"/>
    <path d="M-22.85 10.65 L-22.95 10.6 -23.0 10.5 -22.65 10.7 -22.85 10.65 M-21.25 11.05 L-21.3 11.1 -21.35 11.0 -21.25 11.05" fill="#f3d269" fill-rule="evenodd" stroke="none"/>
    <path d="M-22.85 10.65 L-22.65 10.7 -22.5 10.75 -21.8 11.95 -21.75 12.1 -22.85 10.65" fill="#edd4a2" fill-rule="evenodd" stroke="none"/>
    <path d="M-14.4 14.65 L-14.85 14.25 -14.95 14.15 -14.5 14.55 -14.4 14.65" fill="#ddc540" fill-rule="evenodd" stroke="none"/>
    <path d="M-18.3 12.4 L-18.15 12.4 -18.0 13.0 -17.2 13.9 Q-16.6 14.45 -16.55 14.8 L-16.2 15.6 Q-17.1 14.8 -17.7 13.7 L-18.25 12.45 -18.3 12.4 M-11.75 16.95 L-11.65 16.9 -11.6 16.95 -11.75 16.95" fill="#f9c407" fill-rule="evenodd" stroke="none"/>
    <path d="M-18.3 15.2 L-19.85 14.45 -19.85 12.25 -19.65 12.4 -19.6 12.4 Q-19.25 13.95 -18.3 15.2" fill="#986716" fill-rule="evenodd" stroke="none"/>
    <path d="M-21.3 11.1 L-21.25 11.05 -21.25 11.25 -21.3 11.1" fill="#ba8212" fill-rule="evenodd" stroke="none"/>
    <path d="M-5.4 22.8 L-5.15 23.55 -20.0 15.8 Q-19.3 16.15 -18.65 16.45 L-13.7 18.85 -6.75 22.05 -5.4 22.8" fill="#000000" fill-opacity="0.4" fill-rule="evenodd" stroke="none"/>
    <path d="M-2.85 18.65 L-2.95 18.8 -2.95 18.6 -2.85 18.65 M-7.65 7.5 L-7.35 7.6 -7.4 8.15 -7.65 7.5 M-11.6 18.45 L-11.8 18.35 -11.7 18.3 -11.6 18.4 -11.6 18.45 M-4.05 8.5 L-4.05 8.9 -4.1 8.7 -4.05 8.5 M-4.8 19.95 L-4.75 19.85 -4.75 19.95 -4.8 19.95 M-7.05 17.55 L-6.85 17.35 -6.0 17.95 -6.55 17.8 -7.05 17.55" fill="#90561f" fill-rule="evenodd" stroke="none"/>
    <path d="M0.0 -1.25 L0.1 -1.3 0.1 -1.25 0.0 -1.25" fill="#fdeec8" fill-rule="evenodd" stroke="none"/>
    <path d="M-1.4 9.5 L-1.15 9.85 Q-1.35 9.9 -1.4 10.05 L-1.4 9.5 M-1.25 12.9 L-1.35 11.5 -1.25 12.5 -1.25 12.9" fill="#fef602" fill-rule="evenodd" stroke="none"/>
    <path d="M0.3 9.75 L0.6 9.6 0.6 9.75 0.45 9.75 0.3 9.75" fill="#f4dca2" fill-rule="evenodd" stroke="none"/>
    <path d="M-2.7 9.9 L-2.8 9.9 -2.8 9.85 -2.7 9.9" fill="#ecdbb2" fill-rule="evenodd" stroke="none"/>
    <path d="M-1.7 14.5 L-1.7 15.1 -1.75 15.4 -1.7 14.5" fill="#f4c35b" fill-rule="evenodd" stroke="none"/>
    <path d="M-11.65 16.9 L-11.4 16.7 -11.35 16.65 -11.3 16.6 -11.2 16.55 -10.75 16.2 -10.7 16.2 -10.55 16.25 -10.8 16.4 -11.6 16.95 -11.65 16.9" fill="#cf8207" fill-rule="evenodd" stroke="none"/>
    <path d="M-11.7 18.3 L-11.6 18.3 -11.6 18.4 -11.7 18.3 M-5.25 19.7 L-5.5 19.9 -6.8 19.05 -7.8 18.4 -8.0 17.8 -7.6 18.0 -6.85 18.5 -5.25 19.7" fill="#c3981c" fill-rule="evenodd" stroke="none"/>
    <path d="M-5.4 22.8 L-6.75 22.05 -5.4 22.65 -5.4 22.8" fill="#907262" fill-rule="evenodd" stroke="none"/>
    <path d="M-2.55 20.5 L-2.35 20.5 -2.3 20.7 -2.35 20.7 -2.55 20.5" fill="#edd367" fill-rule="evenodd" stroke="none"/>
    <path d="M-3.15 22.3 L-3.1 22.5 -3.25 21.9 -3.15 22.3 M-3.25 23.3 L-3.75 22.4 -3.7 22.1 -3.25 23.3" fill="#dcb10b" fill-rule="evenodd" stroke="none"/>
    <path d="M0.85 19.75 L1.05 19.8 1.15 19.95 1.1 20.3 Q-0.15 20.65 -0.45 21.1 L-0.45 21.15 -0.5 21.15 -0.5 20.85 0.85 19.75" fill="#dfc447" fill-rule="evenodd" stroke="none"/>
    <path d="M1.1 23.95 Q0.45 24.25 0.15 24.45 L-0.25 24.6 -0.3 24.6 -0.35 24.6 -0.5 24.55 -0.55 24.55 -0.8 22.4 -0.6 22.65 -0.35 23.2 -0.1 22.95 -0.1 22.65 Q0.1 22.65 0.2 22.8 L0.5 22.65 0.6 22.4 0.8 22.5 1.2 22.1 1.45 21.45 1.55 22.1 1.3 23.2 1.05 23.85 1.1 23.95 M-0.85 22.0 L-0.95 21.25 -1.1 21.3 -1.1 21.15 -0.85 21.15 -0.5 21.15 -0.5 21.2 -0.55 21.35 -0.6 21.4 -0.85 21.4 -0.85 22.0" fill="#daab16" fill-rule="evenodd" stroke="none"/>
    <path d="M-0.5 21.15 L-0.45 21.15 -0.5 21.2 -0.5 21.15 M-0.6 22.65 L-0.8 22.4 -0.85 22.0 -0.85 21.4 -0.6 21.4 -0.55 21.35 -0.65 22.25 -0.6 22.65" fill="#f5e5a1" fill-rule="evenodd" stroke="none"/>
    <path d="M-0.55 24.55 L-0.5 24.55 -0.35 24.6 -0.3 24.6 -0.5 24.7 -0.55 24.55" fill="#a27735" fill-rule="evenodd" stroke="none"/>
    <path d="M-0.45 3.95 L-0.85 3.95 -0.95 3.95 -1.1 3.05 -1.1 1.45 -1.15 0.7 Q-1.05 -0.55 -1.75 -1.2 L-0.8 -1.05 -0.25 -1.2 -0.5 -0.5 -0.4 2.65 -0.35 3.15 -0.45 3.95 M25.05 -8.1 L25.5 -8.35 25.5 -7.95 25.4 -5.95 25.25 -5.2 25.3 -5.9 25.3 -6.45 25.05 -8.1 M22.9 7.75 L23.2 7.8 23.15 8.75 22.9 9.1 22.3 9.45 21.95 9.9 21.9 9.9 21.85 9.3 21.95 8.8 21.9 8.45 22.5 8.1 22.55 8.05 22.9 7.75 M-2.8 7.65 L-4.2 6.95 Q-4.5 5.5 -4.4 4.35 L-4.4 4.2 -4.4 4.05 -3.9 4.3 -4.0 5.25 Q-4.0 7.0 -2.8 7.65 M-1.65 5.15 L-1.1 5.2 -1.1 6.35 -1.05 6.75 -1.1 6.75 Q-1.2 5.8 -1.65 5.15 M-1.15 9.85 L-1.05 9.95 -1.1 10.4 -1.1 10.5 -1.35 15.0 Q-1.4 18.1 -1.1 18.75 L-1.15 19.95 -1.2 20.0 -1.4 19.95 Q-1.6 19.65 -1.6 17.85 L-1.6 17.75 -1.6 17.6 -1.5 15.0 -1.35 13.5 -1.25 12.9 -1.25 12.5 -1.35 11.5 -1.45 10.5 -1.45 10.15 -1.4 10.05 Q-1.35 9.9 -1.15 9.85 M-1.45 20.5 L-0.95 20.65 -0.05 20.0 0.55 19.75 0.65 19.65 0.85 19.75 -0.5 20.85 -0.5 21.15 -0.85 21.15 -1.1 21.15 -1.1 21.3 -0.95 21.25 -0.85 22.0 -0.8 22.4 -0.55 24.55 -0.5 24.7 -0.85 24.85 -1.2 24.65 Q-1.05 24.25 -1.05 23.25 L-1.15 21.35 Q-1.3 20.75 -1.55 20.5 L-1.45 20.5 M-9.35 13.5 L-9.4 13.65 -9.8 14.4 Q-11.0 16.6 -13.25 16.75 L-13.6 16.75 Q-14.15 16.75 -15.1 15.8 L-15.35 15.45 -14.75 15.8 -14.55 15.95 -14.5 15.95 -14.45 16.0 -14.4 16.0 -13.15 16.3 -12.8 16.2 -12.75 16.2 -12.35 16.1 -12.1 16.0 -11.5 15.7 Q-10.4 15.15 -9.7 14.1 L-9.45 13.6 -9.4 13.5 -9.35 13.5 M-15.4 3.1 L-15.4 3.05 -15.1 2.35 -14.95 2.2 -14.9 2.1 -14.7 1.95 -14.6 1.9 -14.55 1.85 -14.1 1.7 -14.5 2.5 -14.65 3.0 -14.95 3.1 -15.2 3.15 -15.35 3.15 -15.4 3.1" fill="#ffff66" fill-rule="evenodd" stroke="none"/>
  </g>
</svg>
